<!--
  AUTO-GENERATED — DO NOT EDIT DIRECTLY

  Generated by: mockspace (mock)
  Generated at: 2026-05-04T13:49:11Z
  Source: mock/
  To regenerate: cargo mock
-->

<?xml version="1.0" encoding="UTF-8" standalone="no"?>
<!DOCTYPE svg PUBLIC "-//W3C//DTD SVG 1.1//EN"
 "http://www.w3.org/Graphics/SVG/1.1/DTD/svg11.dtd">
<!-- Generated by graphviz version 14.1.5 (20260411.2331)
 -->
<!-- Title: hilavitkutin Pages: 1 -->
<svg width="856pt" height="509pt"
 viewBox="0.00 0.00 856.00 509.00" xmlns="http://www.w3.org/2000/svg" xmlns:xlink="http://www.w3.org/1999/xlink">
<g id="graph0" class="graph" transform="scale(1 1) rotate(0) translate(57.6 451.35)">
<title>hilavitkutin</title>
<polygon fill="#fafafa" stroke="none" points="-57.6,57.6 -57.6,-451.35 798.48,-451.35 798.48,57.6 -57.6,57.6"/>
<text xml:space="preserve" text-anchor="start" x="10" y="-371.65" font-family="Helvetica,sans-Serif" font-weight="bold" font-size="18.00" fill="#37474f">hilavitkutin</text>
<text xml:space="preserve" text-anchor="start" x="10" y="-357.5" font-family="Helvetica,sans-Serif" font-size="9.00" fill="#999999">crate architecture</text>
<!-- hilavitkutin_api -->
<g id="node1" class="node">
<title>hilavitkutin_api</title>
<path fill="#f0f0f0" stroke="none" d="M149.17,-189C149.17,-189 161.08,-189 161.08,-189 166.67,-189 172.25,-194.58 172.25,-200.17 172.25,-200.17 172.25,-211.33 172.25,-211.33 172.25,-216.92 166.67,-222.5 161.08,-222.5 161.08,-222.5 149.17,-222.5 149.17,-222.5 143.58,-222.5 138,-216.92 138,-211.33 138,-211.33 138,-200.17 138,-200.17 138,-194.58 143.58,-189 149.17,-189"/>
<polygon fill="#666666" stroke="none" points="139,-204.25 139,-221.5 171.25,-221.5 171.25,-204.25 139,-204.25"/>
<text xml:space="preserve" text-anchor="start" x="142" y="-210" font-family="Helvetica,sans-Serif" font-weight="bold" font-size="10.00" fill="white"> &#160;api &#160;</text>
<text xml:space="preserve" text-anchor="start" x="143.12" y="-195.6" font-family="Helvetica,sans-Serif" font-style="italic" font-size="7.00" fill="#999999">(empty)</text>
<path fill="none" stroke="#666666" stroke-width="2" d="M149.17,-189C149.17,-189 161.08,-189 161.08,-189 166.67,-189 172.25,-194.58 172.25,-200.17 172.25,-200.17 172.25,-211.33 172.25,-211.33 172.25,-216.92 166.67,-222.5 161.08,-222.5 161.08,-222.5 149.17,-222.5 149.17,-222.5 143.58,-222.5 138,-216.92 138,-211.33 138,-211.33 138,-200.17 138,-200.17 138,-194.58 143.58,-189 149.17,-189"/>
</g>
<!-- hilavitkutin_persistence -->
<g id="node8" class="node">
<title>hilavitkutin_persistence</title>
<path fill="#f0f0f0" stroke="none" d="M114.67,-305.75C114.67,-305.75 165.58,-305.75 165.58,-305.75 171.17,-305.75 176.75,-311.33 176.75,-316.92 176.75,-316.92 176.75,-328.08 176.75,-328.08 176.75,-333.67 171.17,-339.25 165.58,-339.25 165.58,-339.25 114.67,-339.25 114.67,-339.25 109.08,-339.25 103.5,-333.67 103.5,-328.08 103.5,-328.08 103.5,-316.92 103.5,-316.92 103.5,-311.33 109.08,-305.75 114.67,-305.75"/>
<polygon fill="#666666" stroke="none" points="104.5,-321 104.5,-338.25 175.75,-338.25 175.75,-321 104.5,-321"/>
<text xml:space="preserve" text-anchor="start" x="107.5" y="-326.75" font-family="Helvetica,sans-Serif" font-weight="bold" font-size="10.00" fill="white"> &#160;persistence &#160;</text>
<text xml:space="preserve" text-anchor="start" x="128.12" y="-312.35" font-family="Helvetica,sans-Serif" font-style="italic" font-size="7.00" fill="#999999">(empty)</text>
<path fill="none" stroke="#666666" stroke-width="2" d="M114.67,-305.75C114.67,-305.75 165.58,-305.75 165.58,-305.75 171.17,-305.75 176.75,-311.33 176.75,-316.92 176.75,-316.92 176.75,-328.08 176.75,-328.08 176.75,-333.67 171.17,-339.25 165.58,-339.25 165.58,-339.25 114.67,-339.25 114.67,-339.25 109.08,-339.25 103.5,-333.67 103.5,-328.08 103.5,-328.08 103.5,-316.92 103.5,-316.92 103.5,-311.33 109.08,-305.75 114.67,-305.75"/>
</g>
<!-- hilavitkutin_api&#45;&gt;hilavitkutin_persistence -->
<g id="edge5" class="edge">
<title>hilavitkutin_api&#45;&gt;hilavitkutin_persistence</title>
<path fill="none" stroke="#bbbbbb" stroke-width="0.8" d="M152.91,-223.68C150.3,-243.63 145.96,-276.84 143.07,-298.95"/>
<polygon fill="#bbbbbb" stroke="#bbbbbb" stroke-width="0.8" points="141.37,-298.49 142.46,-303.67 144.84,-298.94 141.37,-298.49"/>
</g>
<!-- hilavitkutin_providers -->
<g id="node9" class="node">
<title>hilavitkutin_providers</title>
<path fill="#f0f0f0" stroke="none" d="M12.17,-305.75C12.17,-305.75 54.08,-305.75 54.08,-305.75 59.67,-305.75 65.25,-311.33 65.25,-316.92 65.25,-316.92 65.25,-328.08 65.25,-328.08 65.25,-333.67 59.67,-339.25 54.08,-339.25 54.08,-339.25 12.17,-339.25 12.17,-339.25 6.58,-339.25 1,-333.67 1,-328.08 1,-328.08 1,-316.92 1,-316.92 1,-311.33 6.58,-305.75 12.17,-305.75"/>
<polygon fill="#666666" stroke="none" points="2,-321 2,-338.25 64.25,-338.25 64.25,-321 2,-321"/>
<text xml:space="preserve" text-anchor="start" x="5" y="-326.75" font-family="Helvetica,sans-Serif" font-weight="bold" font-size="10.00" fill="white"> &#160;providers &#160;</text>
<text xml:space="preserve" text-anchor="start" x="21.12" y="-312.35" font-family="Helvetica,sans-Serif" font-style="italic" font-size="7.00" fill="#999999">(empty)</text>
<path fill="none" stroke="#666666" stroke-width="2" d="M12.17,-305.75C12.17,-305.75 54.08,-305.75 54.08,-305.75 59.67,-305.75 65.25,-311.33 65.25,-316.92 65.25,-316.92 65.25,-328.08 65.25,-328.08 65.25,-333.67 59.67,-339.25 54.08,-339.25 54.08,-339.25 12.17,-339.25 12.17,-339.25 6.58,-339.25 1,-333.67 1,-328.08 1,-328.08 1,-316.92 1,-316.92 1,-311.33 6.58,-305.75 12.17,-305.75"/>
</g>
<!-- hilavitkutin_api&#45;&gt;hilavitkutin_providers -->
<g id="edge6" class="edge">
<title>hilavitkutin_api&#45;&gt;hilavitkutin_providers</title>
<path fill="none" stroke="#bbbbbb" stroke-width="0.8" d="M137.12,-223.68C115.37,-244.14 78.79,-278.55 55.32,-300.63"/>
<polygon fill="#bbbbbb" stroke="#bbbbbb" stroke-width="0.8" points="54.13,-299.34 51.69,-304.04 56.53,-301.89 54.13,-299.34"/>
</g>
<!-- hilavitkutin_build -->
<g id="node2" class="node">
<title>hilavitkutin_build</title>
<path fill="#f0f0f0" stroke="none" d="M259.29,-41.12C259.29,-41.12 280.96,-41.12 280.96,-41.12 286.54,-41.12 292.12,-46.71 292.12,-52.29 292.12,-52.29 292.12,-63.46 292.12,-63.46 292.12,-69.04 286.54,-74.62 280.96,-74.62 280.96,-74.62 259.29,-74.62 259.29,-74.62 253.71,-74.62 248.12,-69.04 248.12,-63.46 248.12,-63.46 248.12,-52.29 248.12,-52.29 248.12,-46.71 253.71,-41.12 259.29,-41.12"/>
<polygon fill="#666666" stroke="none" points="249.12,-56.38 249.12,-73.62 291.12,-73.62 291.12,-56.38 249.12,-56.38"/>
<text xml:space="preserve" text-anchor="start" x="252.12" y="-62.12" font-family="Helvetica,sans-Serif" font-weight="bold" font-size="10.00" fill="white"> &#160;build &#160;</text>
<text xml:space="preserve" text-anchor="start" x="258.12" y="-47.73" font-family="Helvetica,sans-Serif" font-style="italic" font-size="7.00" fill="#999999">(empty)</text>
<path fill="none" stroke="#666666" stroke-width="2" d="M259.29,-41.12C259.29,-41.12 280.96,-41.12 280.96,-41.12 286.54,-41.12 292.12,-46.71 292.12,-52.29 292.12,-52.29 292.12,-63.46 292.12,-63.46 292.12,-69.04 286.54,-74.62 280.96,-74.62 280.96,-74.62 259.29,-74.62 259.29,-74.62 253.71,-74.62 248.12,-69.04 248.12,-63.46 248.12,-63.46 248.12,-52.29 248.12,-52.29 248.12,-46.71 253.71,-41.12 259.29,-41.12"/>
</g>
<!-- hilavitkutin_ctx -->
<g id="node3" class="node">
<title>hilavitkutin_ctx</title>
<path fill="#f0f0f0" stroke="none" d="M108.75,-1C108.75,-1 201.5,-1 201.5,-1 207.5,-1 213.5,-7 213.5,-13 213.5,-13 213.5,-102.75 213.5,-102.75 213.5,-108.75 207.5,-114.75 201.5,-114.75 201.5,-114.75 108.75,-114.75 108.75,-114.75 102.75,-114.75 96.75,-108.75 96.75,-102.75 96.75,-102.75 96.75,-13 96.75,-13 96.75,-7 102.75,-1 108.75,-1"/>
<polygon fill="#666666" stroke="none" points="97.75,-96.5 97.75,-113.75 212.5,-113.75 212.5,-96.5 97.75,-96.5"/>
<text xml:space="preserve" text-anchor="start" x="142.38" y="-102.25" font-family="Helvetica,sans-Serif" font-weight="bold" font-size="10.00" fill="white"> &#160;ctx &#160;</text>
<text xml:space="preserve" text-anchor="start" x="100.75" y="-86.75" font-family="Helvetica,sans-Serif" font-size="6.00" fill="#78909c">struct</text>
<text xml:space="preserve" text-anchor="start" x="128.5" y="-87.85" font-family="Helvetica,sans-Serif" font-weight="bold" font-size="7.00" fill="#546e7a">■ Context&lt;P&gt;</text>
<polygon fill="#ffcdd2" stroke="none" points="97.75,-65 97.75,-80.75 125.5,-80.75 125.5,-65 97.75,-65"/>
<text xml:space="preserve" text-anchor="start" x="100.75" y="-71" font-family="Helvetica,sans-Serif" font-size="7.00" fill="#b71c1c">macro!</text>
<polygon fill="#fff8e1" stroke="none" points="125.5,-65 125.5,-80.75 212.5,-80.75 212.5,-65 125.5,-65"/>
<text xml:space="preserve" text-anchor="start" x="128.5" y="-71.15" font-family="Helvetica,sans-Serif" font-weight="bold" font-size="8.00" fill="#d32f2f">⚙ provider!</text>
<polygon fill="#ffcdd2" stroke="none" points="97.75,-49.25 97.75,-65 125.5,-65 125.5,-49.25 97.75,-49.25"/>
<text xml:space="preserve" text-anchor="start" x="100.75" y="-55.25" font-family="Helvetica,sans-Serif" font-size="7.00" fill="#b71c1c">macro!</text>
<polygon fill="#fff8e1" stroke="none" points="125.5,-49.25 125.5,-65 212.5,-65 212.5,-49.25 125.5,-49.25"/>
<text xml:space="preserve" text-anchor="start" x="128.5" y="-55.4" font-family="Helvetica,sans-Serif" font-weight="bold" font-size="8.00" fill="#d32f2f">⚙ tuple!</text>
<polygon fill="#ffcdd2" stroke="none" points="97.75,-33.5 97.75,-49.25 125.5,-49.25 125.5,-33.5 97.75,-33.5"/>
<text xml:space="preserve" text-anchor="start" x="100.75" y="-39.5" font-family="Helvetica,sans-Serif" font-size="7.00" fill="#b71c1c">macro!</text>
<polygon fill="#fff8e1" stroke="none" points="125.5,-33.5 125.5,-49.25 212.5,-49.25 212.5,-33.5 125.5,-33.5"/>
<text xml:space="preserve" text-anchor="start" x="128.5" y="-39.65" font-family="Helvetica,sans-Serif" font-weight="bold" font-size="8.00" fill="#d32f2f">⚙ provider_generic!</text>
<polygon fill="#ffcdd2" stroke="none" points="97.75,-17.75 97.75,-33.5 125.5,-33.5 125.5,-17.75 97.75,-17.75"/>
<text xml:space="preserve" text-anchor="start" x="100.75" y="-23.75" font-family="Helvetica,sans-Serif" font-size="7.00" fill="#b71c1c">macro!</text>
<polygon fill="#fff8e1" stroke="none" points="125.5,-17.75 125.5,-33.5 212.5,-33.5 212.5,-17.75 125.5,-17.75"/>
<text xml:space="preserve" text-anchor="start" x="128.5" y="-23.9" font-family="Helvetica,sans-Serif" font-weight="bold" font-size="8.00" fill="#d32f2f">⚙ provider_generic2!</text>
<polygon fill="#ffcdd2" stroke="none" points="97.75,-2 97.75,-17.75 125.5,-17.75 125.5,-2 97.75,-2"/>
<text xml:space="preserve" text-anchor="start" x="100.75" y="-8" font-family="Helvetica,sans-Serif" font-size="7.00" fill="#b71c1c">macro!</text>
<polygon fill="#fff8e1" stroke="none" points="125.5,-2 125.5,-17.75 212.5,-17.75 212.5,-2 125.5,-2"/>
<text xml:space="preserve" text-anchor="start" x="128.5" y="-8.15" font-family="Helvetica,sans-Serif" font-weight="bold" font-size="8.00" fill="#d32f2f">⚙ define_providers!</text>
<polygon fill="#666666" stroke="#666666" points="95.75,-96.5 95.75,-96.5 214.5,-96.5 214.5,-96.5 95.75,-96.5"/>
<polygon fill="#666666" stroke="#666666" points="95.75,-80.75 95.75,-80.75 125.5,-80.75 125.5,-80.75 95.75,-80.75"/>
<polygon fill="#666666" stroke="#666666" points="125.5,-80.75 125.5,-80.75 214.5,-80.75 214.5,-80.75 125.5,-80.75"/>
<polygon fill="#666666" stroke="#666666" points="95.75,-65 95.75,-65 125.5,-65 125.5,-65 95.75,-65"/>
<polygon fill="#666666" stroke="#666666" points="125.5,-65 125.5,-65 214.5,-65 214.5,-65 125.5,-65"/>
<polygon fill="#666666" stroke="#666666" points="95.75,-49.25 95.75,-49.25 125.5,-49.25 125.5,-49.25 95.75,-49.25"/>
<polygon fill="#666666" stroke="#666666" points="125.5,-49.25 125.5,-49.25 214.5,-49.25 214.5,-49.25 125.5,-49.25"/>
<polygon fill="#666666" stroke="#666666" points="95.75,-33.5 95.75,-33.5 125.5,-33.5 125.5,-33.5 95.75,-33.5"/>
<polygon fill="#666666" stroke="#666666" points="125.5,-33.5 125.5,-33.5 214.5,-33.5 214.5,-33.5 125.5,-33.5"/>
<polygon fill="#666666" stroke="#666666" points="95.75,-17.75 95.75,-17.75 125.5,-17.75 125.5,-17.75 95.75,-17.75"/>
<polygon fill="#666666" stroke="#666666" points="125.5,-17.75 125.5,-17.75 214.5,-17.75 214.5,-17.75 125.5,-17.75"/>
<path fill="none" stroke="#666666" stroke-width="2" d="M108.75,-1C108.75,-1 201.5,-1 201.5,-1 207.5,-1 213.5,-7 213.5,-13 213.5,-13 213.5,-102.75 213.5,-102.75 213.5,-108.75 207.5,-114.75 201.5,-114.75 201.5,-114.75 108.75,-114.75 108.75,-114.75 102.75,-114.75 96.75,-108.75 96.75,-102.75 96.75,-102.75 96.75,-13 96.75,-13 96.75,-7 102.75,-1 108.75,-1"/>
</g>
<!-- hilavitkutin_ctx&#45;&gt;hilavitkutin_api -->
<g id="edge1" class="edge">
<title>hilavitkutin_ctx&#45;&gt;hilavitkutin_api</title>
<path fill="none" stroke="#bbbbbb" stroke-width="0.8" d="M155.12,-115.69C155.12,-138.78 155.12,-164.13 155.12,-181.86"/>
<polygon fill="#bbbbbb" stroke="#bbbbbb" stroke-width="0.8" points="153.38,-181.82 155.13,-186.82 156.88,-181.82 153.38,-181.82"/>
</g>
<!-- hilavitkutin_extensions -->
<g id="node4" class="node">
<title>hilavitkutin_extensions</title>
<path fill="#f0f0f0" stroke="none" d="M444.17,-189C444.17,-189 492.08,-189 492.08,-189 497.67,-189 503.25,-194.58 503.25,-200.17 503.25,-200.17 503.25,-211.33 503.25,-211.33 503.25,-216.92 497.67,-222.5 492.08,-222.5 492.08,-222.5 444.17,-222.5 444.17,-222.5 438.58,-222.5 433,-216.92 433,-211.33 433,-211.33 433,-200.17 433,-200.17 433,-194.58 438.58,-189 444.17,-189"/>
<polygon fill="#666666" stroke="none" points="434,-204.25 434,-221.5 502.25,-221.5 502.25,-204.25 434,-204.25"/>
<text xml:space="preserve" text-anchor="start" x="437" y="-210" font-family="Helvetica,sans-Serif" font-weight="bold" font-size="10.00" fill="white"> &#160;extensions &#160;</text>
<text xml:space="preserve" text-anchor="start" x="456.12" y="-195.6" font-family="Helvetica,sans-Serif" font-style="italic" font-size="7.00" fill="#999999">(empty)</text>
<path fill="none" stroke="#666666" stroke-width="2" d="M444.17,-189C444.17,-189 492.08,-189 492.08,-189 497.67,-189 503.25,-194.58 503.25,-200.17 503.25,-200.17 503.25,-211.33 503.25,-211.33 503.25,-216.92 497.67,-222.5 492.08,-222.5 492.08,-222.5 444.17,-222.5 444.17,-222.5 438.58,-222.5 433,-216.92 433,-211.33 433,-211.33 433,-200.17 433,-200.17 433,-194.58 438.58,-189 444.17,-189"/>
</g>
<!-- hilavitkutin_extensions_macros -->
<g id="node5" class="node">
<title>hilavitkutin_extensions_macros</title>
<path fill="#f0f0f0" stroke="none" d="M332.5,-296.75C332.5,-296.75 603.75,-296.75 603.75,-296.75 609.75,-296.75 615.75,-302.75 615.75,-308.75 615.75,-308.75 615.75,-336.25 615.75,-336.25 615.75,-342.25 609.75,-348.25 603.75,-348.25 603.75,-348.25 332.5,-348.25 332.5,-348.25 326.5,-348.25 320.5,-342.25 320.5,-336.25 320.5,-336.25 320.5,-308.75 320.5,-308.75 320.5,-302.75 326.5,-296.75 332.5,-296.75"/>
<polygon fill="#666666" stroke="none" points="321.5,-330 321.5,-347.25 614.75,-347.25 614.75,-330 321.5,-330"/>
<text xml:space="preserve" text-anchor="start" x="418.25" y="-335.75" font-family="Helvetica,sans-Serif" font-weight="bold" font-size="10.00" fill="white"> &#160;extensions&#45;macros &#160;</text>
<polygon fill="#ffcdd2" stroke="none" points="321.5,-314.25 321.5,-330 343.25,-330 343.25,-314.25 321.5,-314.25"/>
<text xml:space="preserve" text-anchor="start" x="324.5" y="-320.25" font-family="Helvetica,sans-Serif" font-size="7.00" fill="#b71c1c">proc!</text>
<polygon fill="#fff8e1" stroke="none" points="343.25,-314.25 343.25,-330 614.75,-330 614.75,-314.25 343.25,-314.25"/>
<text xml:space="preserve" text-anchor="start" x="346.25" y="-320.4" font-family="Helvetica,sans-Serif" font-weight="bold" font-size="8.00" fill="#d32f2f">⚙ export_extension!</text>
<text xml:space="preserve" text-anchor="start" x="324.5" y="-304.12" font-family="Helvetica,sans-Serif" font-size="6.00" fill="#78909c">fn</text>
<text xml:space="preserve" text-anchor="start" x="346.25" y="-304.65" font-family="Helvetica,sans-Serif" font-weight="bold" font-size="7.00" fill="#546e7a">ƒ export_extension</text>
<text xml:space="preserve" text-anchor="start" x="410.75" y="-304.65" font-family="Helvetica,sans-Serif" font-size="8.00">(attr: TokenStream, item: TokenStream) → TokenStream</text>
<polygon fill="#666666" stroke="#666666" points="319.5,-330 319.5,-330 616.75,-330 616.75,-330 319.5,-330"/>
<polygon fill="#666666" stroke="#666666" points="319.5,-314.25 319.5,-314.25 343.25,-314.25 343.25,-314.25 319.5,-314.25"/>
<polygon fill="#666666" stroke="#666666" points="343.25,-314.25 343.25,-314.25 616.75,-314.25 616.75,-314.25 343.25,-314.25"/>
<path fill="none" stroke="#666666" stroke-width="2" d="M332.5,-296.75C332.5,-296.75 603.75,-296.75 603.75,-296.75 609.75,-296.75 615.75,-302.75 615.75,-308.75 615.75,-308.75 615.75,-336.25 615.75,-336.25 615.75,-342.25 609.75,-348.25 603.75,-348.25 603.75,-348.25 332.5,-348.25 332.5,-348.25 326.5,-348.25 320.5,-342.25 320.5,-336.25 320.5,-336.25 320.5,-308.75 320.5,-308.75 320.5,-302.75 326.5,-296.75 332.5,-296.75"/>
</g>
<!-- hilavitkutin_extensions&#45;&gt;hilavitkutin_extensions_macros -->
<g id="edge3" class="edge">
<title>hilavitkutin_extensions&#45;&gt;hilavitkutin_extensions_macros</title>
<path fill="none" stroke="#bbbbbb" stroke-width="0.8" d="M468.12,-223.68C468.12,-241.04 468.12,-268.46 468.12,-289.86"/>
<polygon fill="#bbbbbb" stroke="#bbbbbb" stroke-width="0.8" points="466.38,-289.79 468.13,-294.79 469.88,-289.79 466.38,-289.79"/>
</g>
<!-- hilavitkutin_kit -->
<g id="node6" class="node">
<title>hilavitkutin_kit</title>
<path fill="#f0f0f0" stroke="none" d="M652.38,-34C652.38,-34 727.88,-34 727.88,-34 733.88,-34 739.88,-40 739.88,-46 739.88,-46 739.88,-69.75 739.88,-69.75 739.88,-75.75 733.88,-81.75 727.88,-81.75 727.88,-81.75 652.38,-81.75 652.38,-81.75 646.38,-81.75 640.38,-75.75 640.38,-69.75 640.38,-69.75 640.38,-46 640.38,-46 640.38,-40 646.38,-34 652.38,-34"/>
<polygon fill="#666666" stroke="none" points="641.38,-63.5 641.38,-80.75 738.88,-80.75 738.88,-63.5 641.38,-63.5"/>
<text xml:space="preserve" text-anchor="start" x="678.5" y="-69.25" font-family="Helvetica,sans-Serif" font-weight="bold" font-size="10.00" fill="white"> &#160;kit &#160;</text>
<text xml:space="preserve" text-anchor="start" x="644.38" y="-53.75" font-family="Helvetica,sans-Serif" font-size="6.00" fill="#78909c">trait</text>
<text xml:space="preserve" text-anchor="start" x="660.12" y="-54.85" font-family="Helvetica,sans-Serif" font-weight="bold" font-size="7.00" fill="#546e7a">◆ Kit&lt;B&gt;</text>
<text xml:space="preserve" text-anchor="start" x="660.12" y="-39.5" font-family="Helvetica,sans-Serif" font-size="5.00" fill="#90a4ae">ƒ install(builder: B) → Self::Output</text>
<polygon fill="#666666" stroke="#666666" points="639.38,-63.5 639.38,-63.5 740.88,-63.5 740.88,-63.5 639.38,-63.5"/>
<path fill="none" stroke="#666666" stroke-width="2" d="M652.38,-34C652.38,-34 727.88,-34 727.88,-34 733.88,-34 739.88,-40 739.88,-46 739.88,-46 739.88,-69.75 739.88,-69.75 739.88,-75.75 733.88,-81.75 727.88,-81.75 727.88,-81.75 652.38,-81.75 652.38,-81.75 646.38,-81.75 640.38,-75.75 640.38,-69.75 640.38,-69.75 640.38,-46 640.38,-46 640.38,-40 646.38,-34 652.38,-34"/>
</g>
<!-- hilavitkutin_linking -->
<g id="node7" class="node">
<title>hilavitkutin_linking</title>
<path fill="#f0f0f0" stroke="none" d="M338.88,-32.12C338.88,-32.12 597.38,-32.12 597.38,-32.12 603.38,-32.12 609.38,-38.12 609.38,-44.12 609.38,-44.12 609.38,-71.62 609.38,-71.62 609.38,-77.62 603.38,-83.62 597.38,-83.62 597.38,-83.62 338.88,-83.62 338.88,-83.62 332.88,-83.62 326.88,-77.62 326.88,-71.62 326.88,-71.62 326.88,-44.12 326.88,-44.12 326.88,-38.12 332.88,-32.12 338.88,-32.12"/>
<polygon fill="#666666" stroke="none" points="327.88,-65.38 327.88,-82.62 608.38,-82.62 608.38,-65.38 327.88,-65.38"/>
<text xml:space="preserve" text-anchor="start" x="446" y="-71.12" font-family="Helvetica,sans-Serif" font-weight="bold" font-size="10.00" fill="white"> &#160;linking &#160;</text>
<text xml:space="preserve" text-anchor="start" x="330.88" y="-55.62" font-family="Helvetica,sans-Serif" font-size="6.00" fill="#78909c">struct</text>
<text xml:space="preserve" text-anchor="start" x="351.12" y="-56.73" font-family="Helvetica,sans-Serif" font-weight="bold" font-size="7.00" fill="#546e7a">■ Library</text>
<text xml:space="preserve" text-anchor="start" x="330.88" y="-39.5" font-family="Helvetica,sans-Serif" font-size="6.00" fill="#78909c">fn</text>
<text xml:space="preserve" text-anchor="start" x="351.12" y="-40.02" font-family="Helvetica,sans-Serif" font-weight="bold" font-size="7.00" fill="#546e7a">ƒ compatibility_check</text>
<text xml:space="preserve" text-anchor="start" x="424.62" y="-40.02" font-family="Helvetica,sans-Serif" font-size="8.00">(bytes: &amp;[u8]) → Outcome&lt;(), IncompatibilityError&gt;</text>
<polygon fill="#666666" stroke="#666666" points="325.88,-65.38 325.88,-65.38 610.38,-65.38 610.38,-65.38 325.88,-65.38"/>
<polygon fill="#666666" stroke="#666666" points="325.88,-49.62 325.88,-49.62 348.12,-49.62 348.12,-49.62 325.88,-49.62"/>
<polygon fill="#666666" stroke="#666666" points="348.12,-49.62 348.12,-49.62 610.38,-49.62 610.38,-49.62 348.12,-49.62"/>
<path fill="none" stroke="#666666" stroke-width="2" d="M338.88,-32.12C338.88,-32.12 597.38,-32.12 597.38,-32.12 603.38,-32.12 609.38,-38.12 609.38,-44.12 609.38,-44.12 609.38,-71.62 609.38,-71.62 609.38,-77.62 603.38,-83.62 597.38,-83.62 597.38,-83.62 338.88,-83.62 338.88,-83.62 332.88,-83.62 326.88,-77.62 326.88,-71.62 326.88,-71.62 326.88,-44.12 326.88,-44.12 326.88,-38.12 332.88,-32.12 338.88,-32.12"/>
</g>
<!-- hilavitkutin_linking&#45;&gt;hilavitkutin_extensions -->
<g id="edge2" class="edge">
<title>hilavitkutin_linking&#45;&gt;hilavitkutin_extensions</title>
<path fill="none" stroke="#bbbbbb" stroke-width="0.8" d="M468.12,-84.62C468.12,-112.18 468.12,-155.5 468.12,-181.9"/>
<polygon fill="#bbbbbb" stroke="#bbbbbb" stroke-width="0.8" points="466.38,-181.69 468.13,-186.69 469.88,-181.69 466.38,-181.69"/>
</g>
<!-- hilavitkutin_str -->
<g id="node10" class="node">
<title>hilavitkutin_str</title>
<path fill="#f0f0f0" stroke="none" d="M27.79,-41.12C27.79,-41.12 38.46,-41.12 38.46,-41.12 43.79,-41.12 49.12,-46.46 49.12,-51.79 49.12,-51.79 49.12,-63.96 49.12,-63.96 49.12,-69.29 43.79,-74.62 38.46,-74.62 38.46,-74.62 27.79,-74.62 27.79,-74.62 22.46,-74.62 17.12,-69.29 17.12,-63.96 17.12,-63.96 17.12,-51.79 17.12,-51.79 17.12,-46.46 22.46,-41.12 27.79,-41.12"/>
<polygon fill="#666666" stroke="none" points="18.12,-56.38 18.12,-73.62 48.12,-73.62 48.12,-56.38 18.12,-56.38"/>
<text xml:space="preserve" text-anchor="start" x="21.12" y="-62.12" font-family="Helvetica,sans-Serif" font-weight="bold" font-size="10.00" fill="white"> &#160;str &#160;</text>
<text xml:space="preserve" text-anchor="start" x="21.12" y="-47.73" font-family="Helvetica,sans-Serif" font-style="italic" font-size="7.00" fill="#999999">(empty)</text>
<path fill="none" stroke="#666666" stroke-width="2" d="M27.79,-41.12C27.79,-41.12 38.46,-41.12 38.46,-41.12 43.79,-41.12 49.12,-46.46 49.12,-51.79 49.12,-51.79 49.12,-63.96 49.12,-63.96 49.12,-69.29 43.79,-74.62 38.46,-74.62 38.46,-74.62 27.79,-74.62 27.79,-74.62 22.46,-74.62 17.12,-69.29 17.12,-63.96 17.12,-63.96 17.12,-51.79 17.12,-51.79 17.12,-46.46 22.46,-41.12 27.79,-41.12"/>
</g>
<!-- hilavitkutin_str&#45;&gt;hilavitkutin_persistence -->
<g id="edge4" class="edge">
<title>hilavitkutin_str&#45;&gt;hilavitkutin_persistence</title>
<path fill="none" stroke="#bbbbbb" stroke-width="0.8" d="M39.98,-75.7C58.59,-121.38 110.05,-247.69 131.04,-299.2"/>
<polygon fill="#bbbbbb" stroke="#bbbbbb" stroke-width="0.8" points="129.36,-299.72 132.87,-303.69 132.6,-298.4 129.36,-299.72"/>
</g>
<!-- hilavitkutin_str&#45;&gt;hilavitkutin_providers -->
<g id="edge7" class="edge">
<title>hilavitkutin_str&#45;&gt;hilavitkutin_providers</title>
<path fill="none" stroke="#bbbbbb" stroke-width="0.8" d="M33.12,-75.7C33.12,-121.29 33.12,-247.18 33.12,-298.89"/>
<polygon fill="#bbbbbb" stroke="#bbbbbb" stroke-width="0.8" points="31.38,-298.6 33.13,-303.6 34.88,-298.6 31.38,-298.6"/>
</g>
</g>
</svg>
