<svg xmlns="http://www.w3.org/2000/svg" xmlns:xlink="http://www.w3.org/1999/xlink" width="532" height="491pt" viewBox="0 0 399 491"><g id="graph0" class="graph" transform="scale(1 1) rotate(0) translate(57.6 433.85)"><title>hilavitkutin</title><polygon fill="#fafafa" stroke="none" points="-57.6 57.6 -57.6 -433.85 341.6 -433.85 341.6 57.6 -57.6 57.6"/><text x="10" y="-354.15" fill="#37474f" font-family="Helvetica,sans-Serif" font-size="18" font-weight="bold" text-anchor="start" xml:space="preserve">hilavitkutin</text><text x="10" y="-340" fill="#999" font-family="Helvetica,sans-Serif" font-size="9" text-anchor="start" xml:space="preserve">crate architecture</text><g id="node1" class="node"><title>hilavitkutin_api</title><path fill="#f0f0f0" stroke="none" d="M114.04,-189C114.04,-189 125.96,-189 125.96,-189 131.54,-189 137.12,-194.58 137.12,-200.17 137.12,-200.17 137.12,-211.33 137.12,-211.33 137.12,-216.92 131.54,-222.5 125.96,-222.5 125.96,-222.5 114.04,-222.5 114.04,-222.5 108.46,-222.5 102.88,-216.92 102.88,-211.33 102.88,-211.33 102.88,-200.17 102.88,-200.17 102.88,-194.58 108.46,-189 114.04,-189"/><polygon fill="#666" stroke="none" points="103.88 -204.25 103.88 -221.5 136.12 -221.5 136.12 -204.25 103.88 -204.25"/><text x="106.88" y="-210" fill="#fff" font-family="Helvetica,sans-Serif" font-size="10" font-weight="bold" text-anchor="start" xml:space="preserve">api</text><text x="108" y="-195.6" fill="#999" font-family="Helvetica,sans-Serif" font-size="7" font-style="italic" text-anchor="start" xml:space="preserve">(empty)</text><path fill="none" stroke="#666" stroke-width="2" d="M114.04,-189C114.04,-189 125.96,-189 125.96,-189 131.54,-189 137.12,-194.58 137.12,-200.17 137.12,-200.17 137.12,-211.33 137.12,-211.33 137.12,-216.92 131.54,-222.5 125.96,-222.5 125.96,-222.5 114.04,-222.5 114.04,-222.5 108.46,-222.5 102.88,-216.92 102.88,-211.33 102.88,-211.33 102.88,-200.17 102.88,-200.17 102.88,-194.58 108.46,-189 114.04,-189"/></g><g id="node4" class="node"><title>hilavitkutin_persistence</title><path fill="#f0f0f0" stroke="none" d="M47.54,-297C47.54,-297 98.46,-297 98.46,-297 104.04,-297 109.62,-302.58 109.62,-308.17 109.62,-308.17 109.62,-319.33 109.62,-319.33 109.62,-324.92 104.04,-330.5 98.46,-330.5 98.46,-330.5 47.54,-330.5 47.54,-330.5 41.96,-330.5 36.38,-324.92 36.38,-319.33 36.38,-319.33 36.38,-308.17 36.38,-308.17 36.38,-302.58 41.96,-297 47.54,-297"/><polygon fill="#666" stroke="none" points="37.38 -312.25 37.38 -329.5 108.62 -329.5 108.62 -312.25 37.38 -312.25"/><text x="40.38" y="-318" fill="#fff" font-family="Helvetica,sans-Serif" font-size="10" font-weight="bold" text-anchor="start" xml:space="preserve">persistence</text><text x="61" y="-303.6" fill="#999" font-family="Helvetica,sans-Serif" font-size="7" font-style="italic" text-anchor="start" xml:space="preserve">(empty)</text><path fill="none" stroke="#666" stroke-width="2" d="M47.54,-297C47.54,-297 98.46,-297 98.46,-297 104.04,-297 109.62,-302.58 109.62,-308.17 109.62,-308.17 109.62,-319.33 109.62,-319.33 109.62,-324.92 104.04,-330.5 98.46,-330.5 98.46,-330.5 47.54,-330.5 47.54,-330.5 41.96,-330.5 36.38,-324.92 36.38,-319.33 36.38,-319.33 36.38,-308.17 36.38,-308.17 36.38,-302.58 41.96,-297 47.54,-297"/></g><g id="edge3" class="edge"><title>hilavitkutin_api-&gt;hilavitkutin_persistence</title><path fill="none" stroke="#bbb" stroke-width=".8" d="M112.66,-223.31C104.67,-241.33 91.85,-270.24 82.96,-290.29"/><polygon fill="#bbb" stroke="#bbb" stroke-width=".8" points="81.37 -289.57 80.94 -294.85 84.56 -290.99 81.37 -289.57"/></g><g id="node2" class="node"><title>hilavitkutin_build</title><path fill="#f0f0f0" stroke="none" d="M246.17,-41.12C246.17,-41.12 267.83,-41.12 267.83,-41.12 273.42,-41.12 279,-46.71 279,-52.29 279,-52.29 279,-63.46 279,-63.46 279,-69.04 273.42,-74.62 267.83,-74.62 267.83,-74.62 246.17,-74.62 246.17,-74.62 240.58,-74.62 235,-69.04 235,-63.46 235,-63.46 235,-52.29 235,-52.29 235,-46.71 240.58,-41.12 246.17,-41.12"/><polygon fill="#666" stroke="none" points="236 -56.38 236 -73.62 278 -73.62 278 -56.38 236 -56.38"/><text x="239" y="-62.12" fill="#fff" font-family="Helvetica,sans-Serif" font-size="10" font-weight="bold" text-anchor="start" xml:space="preserve">build</text><text x="245" y="-47.73" fill="#999" font-family="Helvetica,sans-Serif" font-size="7" font-style="italic" text-anchor="start" xml:space="preserve">(empty)</text><path fill="none" stroke="#666" stroke-width="2" d="M246.17,-41.12C246.17,-41.12 267.83,-41.12 267.83,-41.12 273.42,-41.12 279,-46.71 279,-52.29 279,-52.29 279,-63.46 279,-63.46 279,-69.04 273.42,-74.62 267.83,-74.62 267.83,-74.62 246.17,-74.62 246.17,-74.62 240.58,-74.62 235,-69.04 235,-63.46 235,-63.46 235,-52.29 235,-52.29 235,-46.71 240.58,-41.12 246.17,-41.12"/></g><g id="node3" class="node"><title>hilavitkutin_ctx</title><path fill="#f0f0f0" stroke="none" d="M95.62,-1C95.62,-1 188.38,-1 188.38,-1 194.38,-1 200.38,-7 200.38,-13 200.38,-13 200.38,-102.75 200.38,-102.75 200.38,-108.75 194.38,-114.75 188.38,-114.75 188.38,-114.75 95.62,-114.75 95.62,-114.75 89.62,-114.75 83.62,-108.75 83.62,-102.75 83.62,-102.75 83.62,-13 83.62,-13 83.62,-7 89.62,-1 95.62,-1"/><polygon fill="#666" stroke="none" points="84.62 -96.5 84.62 -113.75 199.38 -113.75 199.38 -96.5 84.62 -96.5"/><text x="129.25" y="-102.25" fill="#fff" font-family="Helvetica,sans-Serif" font-size="10" font-weight="bold" text-anchor="start" xml:space="preserve">ctx</text><text x="87.62" y="-86.75" fill="#78909c" font-family="Helvetica,sans-Serif" font-size="6" text-anchor="start" xml:space="preserve">struct</text><text x="115.38" y="-87.85" fill="#546e7a" font-family="Helvetica,sans-Serif" font-size="7" font-weight="bold" text-anchor="start" xml:space="preserve">■ Context&lt;P&gt;</text><polygon fill="#ffcdd2" stroke="none" points="84.62 -65 84.62 -80.75 112.38 -80.75 112.38 -65 84.62 -65"/><text x="87.62" y="-71" fill="#b71c1c" font-family="Helvetica,sans-Serif" font-size="7" text-anchor="start" xml:space="preserve">macro!</text><polygon fill="#fff8e1" stroke="none" points="112.38 -65 112.38 -80.75 199.38 -80.75 199.38 -65 112.38 -65"/><text x="115.38" y="-71.15" fill="#d32f2f" font-family="Helvetica,sans-Serif" font-size="8" font-weight="bold" text-anchor="start" xml:space="preserve">⚙ provider!</text><polygon fill="#ffcdd2" stroke="none" points="84.62 -49.25 84.62 -65 112.38 -65 112.38 -49.25 84.62 -49.25"/><text x="87.62" y="-55.25" fill="#b71c1c" font-family="Helvetica,sans-Serif" font-size="7" text-anchor="start" xml:space="preserve">macro!</text><polygon fill="#fff8e1" stroke="none" points="112.38 -49.25 112.38 -65 199.38 -65 199.38 -49.25 112.38 -49.25"/><text x="115.38" y="-55.4" fill="#d32f2f" font-family="Helvetica,sans-Serif" font-size="8" font-weight="bold" text-anchor="start" xml:space="preserve">⚙ tuple!</text><polygon fill="#ffcdd2" stroke="none" points="84.62 -33.5 84.62 -49.25 112.38 -49.25 112.38 -33.5 84.62 -33.5"/><text x="87.62" y="-39.5" fill="#b71c1c" font-family="Helvetica,sans-Serif" font-size="7" text-anchor="start" xml:space="preserve">macro!</text><polygon fill="#fff8e1" stroke="none" points="112.38 -33.5 112.38 -49.25 199.38 -49.25 199.38 -33.5 112.38 -33.5"/><text x="115.38" y="-39.65" fill="#d32f2f" font-family="Helvetica,sans-Serif" font-size="8" font-weight="bold" text-anchor="start" xml:space="preserve">⚙ provider_generic!</text><polygon fill="#ffcdd2" stroke="none" points="84.62 -17.75 84.62 -33.5 112.38 -33.5 112.38 -17.75 84.62 -17.75"/><text x="87.62" y="-23.75" fill="#b71c1c" font-family="Helvetica,sans-Serif" font-size="7" text-anchor="start" xml:space="preserve">macro!</text><polygon fill="#fff8e1" stroke="none" points="112.38 -17.75 112.38 -33.5 199.38 -33.5 199.38 -17.75 112.38 -17.75"/><text x="115.38" y="-23.9" fill="#d32f2f" font-family="Helvetica,sans-Serif" font-size="8" font-weight="bold" text-anchor="start" xml:space="preserve">⚙ provider_generic2!</text><polygon fill="#ffcdd2" stroke="none" points="84.62 -2 84.62 -17.75 112.38 -17.75 112.38 -2 84.62 -2"/><text x="87.62" y="-8" fill="#b71c1c" font-family="Helvetica,sans-Serif" font-size="7" text-anchor="start" xml:space="preserve">macro!</text><polygon fill="#fff8e1" stroke="none" points="112.38 -2 112.38 -17.75 199.38 -17.75 199.38 -2 112.38 -2"/><text x="115.38" y="-8.15" fill="#d32f2f" font-family="Helvetica,sans-Serif" font-size="8" font-weight="bold" text-anchor="start" xml:space="preserve">⚙ define_providers!</text><polygon fill="#666" stroke="#666" points="82.62 -96.5 82.62 -96.5 201.38 -96.5 201.38 -96.5 82.62 -96.5"/><polygon fill="#666" stroke="#666" points="82.62 -80.75 82.62 -80.75 112.38 -80.75 112.38 -80.75 82.62 -80.75"/><polygon fill="#666" stroke="#666" points="112.38 -80.75 112.38 -80.75 201.38 -80.75 201.38 -80.75 112.38 -80.75"/><polygon fill="#666" stroke="#666" points="82.62 -65 82.62 -65 112.38 -65 112.38 -65 82.62 -65"/><polygon fill="#666" stroke="#666" points="112.38 -65 112.38 -65 201.38 -65 201.38 -65 112.38 -65"/><polygon fill="#666" stroke="#666" points="82.62 -49.25 82.62 -49.25 112.38 -49.25 112.38 -49.25 82.62 -49.25"/><polygon fill="#666" stroke="#666" points="112.38 -49.25 112.38 -49.25 201.38 -49.25 201.38 -49.25 112.38 -49.25"/><polygon fill="#666" stroke="#666" points="82.62 -33.5 82.62 -33.5 112.38 -33.5 112.38 -33.5 82.62 -33.5"/><polygon fill="#666" stroke="#666" points="112.38 -33.5 112.38 -33.5 201.38 -33.5 201.38 -33.5 112.38 -33.5"/><polygon fill="#666" stroke="#666" points="82.62 -17.75 82.62 -17.75 112.38 -17.75 112.38 -17.75 82.62 -17.75"/><polygon fill="#666" stroke="#666" points="112.38 -17.75 112.38 -17.75 201.38 -17.75 201.38 -17.75 112.38 -17.75"/><path fill="none" stroke="#666" stroke-width="2" d="M95.62,-1C95.62,-1 188.38,-1 188.38,-1 194.38,-1 200.38,-7 200.38,-13 200.38,-13 200.38,-102.75 200.38,-102.75 200.38,-108.75 194.38,-114.75 188.38,-114.75 188.38,-114.75 95.62,-114.75 95.62,-114.75 89.62,-114.75 83.62,-108.75 83.62,-102.75 83.62,-102.75 83.62,-13 83.62,-13 83.62,-7 89.62,-1 95.62,-1"/></g><g id="edge1" class="edge"><title>hilavitkutin_ctx-&gt;hilavitkutin_api</title><path fill="none" stroke="#bbb" stroke-width=".8" d="M133.43,-115.69C129.92,-138.98 126.06,-164.57 123.38,-182.33"/><polygon fill="#bbb" stroke="#bbb" stroke-width=".8" points="121.72 -181.63 122.7 -186.83 125.18 -182.15 121.72 -181.63"/></g><g id="node5" class="node"><title>hilavitkutin_str</title><path fill="#f0f0f0" stroke="none" d="M21.67,-41.12C21.67,-41.12 32.33,-41.12 32.33,-41.12 37.67,-41.12 43,-46.46 43,-51.79 43,-51.79 43,-63.96 43,-63.96 43,-69.29 37.67,-74.62 32.33,-74.62 32.33,-74.62 21.67,-74.62 21.67,-74.62 16.33,-74.62 11,-69.29 11,-63.96 11,-63.96 11,-51.79 11,-51.79 11,-46.46 16.33,-41.12 21.67,-41.12"/><polygon fill="#666" stroke="none" points="12 -56.38 12 -73.62 42 -73.62 42 -56.38 12 -56.38"/><text x="15" y="-62.12" fill="#fff" font-family="Helvetica,sans-Serif" font-size="10" font-weight="bold" text-anchor="start" xml:space="preserve">str</text><text x="15" y="-47.73" fill="#999" font-family="Helvetica,sans-Serif" font-size="7" font-style="italic" text-anchor="start" xml:space="preserve">(empty)</text><path fill="none" stroke="#666" stroke-width="2" d="M21.67,-41.12C21.67,-41.12 32.33,-41.12 32.33,-41.12 37.67,-41.12 43,-46.46 43,-51.79 43,-51.79 43,-63.96 43,-63.96 43,-69.29 37.67,-74.62 32.33,-74.62 32.33,-74.62 21.67,-74.62 21.67,-74.62 16.33,-74.62 11,-69.29 11,-63.96 11,-63.96 11,-51.79 11,-51.79 11,-46.46 16.33,-41.12 21.67,-41.12"/></g><g id="edge2" class="edge"><title>hilavitkutin_str-&gt;hilavitkutin_persistence</title><path fill="none" stroke="#bbb" stroke-width=".8" d="M30.02,-75.53C38.01,-119.65 59.74,-239.56 68.87,-289.96"/><polygon fill="#bbb" stroke="#bbb" stroke-width=".8" points="67.14 -290.23 69.75 -294.84 70.59 -289.61 67.14 -290.23"/></g></g></svg>