<!--
  AUTO-GENERATED — DO NOT EDIT DIRECTLY

  Generated by: mockspace (mock)
  Generated at: 2026-05-04T13:56:09Z
  Source: mock/
  To regenerate: cargo mock
-->

<?xml version="1.0" encoding="UTF-8" standalone="no"?>
<!DOCTYPE svg PUBLIC "-//W3C//DTD SVG 1.1//EN"
 "http://www.w3.org/Graphics/SVG/1.1/DTD/svg11.dtd">
<!-- Generated by graphviz version 14.1.5 (20260411.2331)
 -->
<!-- Title: hilavitkutin Pages: 1 -->
<svg width="868pt" height="509pt"
 viewBox="0.00 0.00 868.00 509.00" xmlns="http://www.w3.org/2000/svg" xmlns:xlink="http://www.w3.org/1999/xlink">
<g id="graph0" class="graph" transform="scale(1 1) rotate(0) translate(57.6 451.35)">
<title>hilavitkutin</title>
<polygon fill="#fafafa" stroke="none" points="-57.6,57.6 -57.6,-451.35 810.35,-451.35 810.35,57.6 -57.6,57.6"/>
<text xml:space="preserve" text-anchor="start" x="10" y="-371.65" font-family="Helvetica,sans-Serif" font-weight="bold" font-size="18.00" fill="#37474f">hilavitkutin</text>
<text xml:space="preserve" text-anchor="start" x="10" y="-357.5" font-family="Helvetica,sans-Serif" font-size="9.00" fill="#999999">crate architecture</text>
<!-- hilavitkutin_api -->
<g id="node1" class="node">
<title>hilavitkutin_api</title>
<path fill="#f0f0f0" stroke="none" d="M161.04,-189C161.04,-189 172.96,-189 172.96,-189 178.54,-189 184.12,-194.58 184.12,-200.17 184.12,-200.17 184.12,-211.33 184.12,-211.33 184.12,-216.92 178.54,-222.5 172.96,-222.5 172.96,-222.5 161.04,-222.5 161.04,-222.5 155.46,-222.5 149.88,-216.92 149.88,-211.33 149.88,-211.33 149.88,-200.17 149.88,-200.17 149.88,-194.58 155.46,-189 161.04,-189"/>
<polygon fill="#666666" stroke="none" points="150.88,-204.25 150.88,-221.5 183.12,-221.5 183.12,-204.25 150.88,-204.25"/>
<text xml:space="preserve" text-anchor="start" x="153.88" y="-210" font-family="Helvetica,sans-Serif" font-weight="bold" font-size="10.00" fill="white"> &#160;api &#160;</text>
<text xml:space="preserve" text-anchor="start" x="155" y="-195.6" font-family="Helvetica,sans-Serif" font-style="italic" font-size="7.00" fill="#999999">(empty)</text>
<path fill="none" stroke="#666666" stroke-width="2" d="M161.04,-189C161.04,-189 172.96,-189 172.96,-189 178.54,-189 184.12,-194.58 184.12,-200.17 184.12,-200.17 184.12,-211.33 184.12,-211.33 184.12,-216.92 178.54,-222.5 172.96,-222.5 172.96,-222.5 161.04,-222.5 161.04,-222.5 155.46,-222.5 149.88,-216.92 149.88,-211.33 149.88,-211.33 149.88,-200.17 149.88,-200.17 149.88,-194.58 155.46,-189 161.04,-189"/>
</g>
<!-- hilavitkutin_persistence -->
<g id="node8" class="node">
<title>hilavitkutin_persistence</title>
<path fill="#f0f0f0" stroke="none" d="M58.54,-305.75C58.54,-305.75 109.46,-305.75 109.46,-305.75 115.04,-305.75 120.62,-311.33 120.62,-316.92 120.62,-316.92 120.62,-328.08 120.62,-328.08 120.62,-333.67 115.04,-339.25 109.46,-339.25 109.46,-339.25 58.54,-339.25 58.54,-339.25 52.96,-339.25 47.38,-333.67 47.38,-328.08 47.38,-328.08 47.38,-316.92 47.38,-316.92 47.38,-311.33 52.96,-305.75 58.54,-305.75"/>
<polygon fill="#666666" stroke="none" points="48.38,-321 48.38,-338.25 119.62,-338.25 119.62,-321 48.38,-321"/>
<text xml:space="preserve" text-anchor="start" x="51.38" y="-326.75" font-family="Helvetica,sans-Serif" font-weight="bold" font-size="10.00" fill="white"> &#160;persistence &#160;</text>
<text xml:space="preserve" text-anchor="start" x="72" y="-312.35" font-family="Helvetica,sans-Serif" font-style="italic" font-size="7.00" fill="#999999">(empty)</text>
<path fill="none" stroke="#666666" stroke-width="2" d="M58.54,-305.75C58.54,-305.75 109.46,-305.75 109.46,-305.75 115.04,-305.75 120.62,-311.33 120.62,-316.92 120.62,-316.92 120.62,-328.08 120.62,-328.08 120.62,-333.67 115.04,-339.25 109.46,-339.25 109.46,-339.25 58.54,-339.25 58.54,-339.25 52.96,-339.25 47.38,-333.67 47.38,-328.08 47.38,-328.08 47.38,-316.92 47.38,-316.92 47.38,-311.33 52.96,-305.75 58.54,-305.75"/>
</g>
<!-- hilavitkutin_api&#45;&gt;hilavitkutin_persistence -->
<g id="edge5" class="edge">
<title>hilavitkutin_api&#45;&gt;hilavitkutin_persistence</title>
<path fill="none" stroke="#bbbbbb" stroke-width="0.8" d="M154.75,-223.68C140.08,-243.97 115.48,-277.98 99.5,-300.07"/>
<polygon fill="#bbbbbb" stroke="#bbbbbb" stroke-width="0.8" points="98.25,-298.81 96.74,-303.89 101.09,-300.87 98.25,-298.81"/>
</g>
<!-- hilavitkutin_build -->
<g id="node2" class="node">
<title>hilavitkutin_build</title>
<path fill="#f0f0f0" stroke="none" d="M271.17,-41.12C271.17,-41.12 292.83,-41.12 292.83,-41.12 298.42,-41.12 304,-46.71 304,-52.29 304,-52.29 304,-63.46 304,-63.46 304,-69.04 298.42,-74.62 292.83,-74.62 292.83,-74.62 271.17,-74.62 271.17,-74.62 265.58,-74.62 260,-69.04 260,-63.46 260,-63.46 260,-52.29 260,-52.29 260,-46.71 265.58,-41.12 271.17,-41.12"/>
<polygon fill="#666666" stroke="none" points="261,-56.38 261,-73.62 303,-73.62 303,-56.38 261,-56.38"/>
<text xml:space="preserve" text-anchor="start" x="264" y="-62.12" font-family="Helvetica,sans-Serif" font-weight="bold" font-size="10.00" fill="white"> &#160;build &#160;</text>
<text xml:space="preserve" text-anchor="start" x="270" y="-47.73" font-family="Helvetica,sans-Serif" font-style="italic" font-size="7.00" fill="#999999">(empty)</text>
<path fill="none" stroke="#666666" stroke-width="2" d="M271.17,-41.12C271.17,-41.12 292.83,-41.12 292.83,-41.12 298.42,-41.12 304,-46.71 304,-52.29 304,-52.29 304,-63.46 304,-63.46 304,-69.04 298.42,-74.62 292.83,-74.62 292.83,-74.62 271.17,-74.62 271.17,-74.62 265.58,-74.62 260,-69.04 260,-63.46 260,-63.46 260,-52.29 260,-52.29 260,-46.71 265.58,-41.12 271.17,-41.12"/>
</g>
<!-- hilavitkutin_ctx -->
<g id="node3" class="node">
<title>hilavitkutin_ctx</title>
<path fill="#f0f0f0" stroke="none" d="M120.62,-1C120.62,-1 213.38,-1 213.38,-1 219.38,-1 225.38,-7 225.38,-13 225.38,-13 225.38,-102.75 225.38,-102.75 225.38,-108.75 219.38,-114.75 213.38,-114.75 213.38,-114.75 120.62,-114.75 120.62,-114.75 114.62,-114.75 108.62,-108.75 108.62,-102.75 108.62,-102.75 108.62,-13 108.62,-13 108.62,-7 114.62,-1 120.62,-1"/>
<polygon fill="#666666" stroke="none" points="109.62,-96.5 109.62,-113.75 224.38,-113.75 224.38,-96.5 109.62,-96.5"/>
<text xml:space="preserve" text-anchor="start" x="154.25" y="-102.25" font-family="Helvetica,sans-Serif" font-weight="bold" font-size="10.00" fill="white"> &#160;ctx &#160;</text>
<text xml:space="preserve" text-anchor="start" x="112.62" y="-86.75" font-family="Helvetica,sans-Serif" font-size="6.00" fill="#78909c">struct</text>
<text xml:space="preserve" text-anchor="start" x="140.38" y="-87.85" font-family="Helvetica,sans-Serif" font-weight="bold" font-size="7.00" fill="#546e7a">■ Context&lt;P&gt;</text>
<polygon fill="#ffcdd2" stroke="none" points="109.62,-65 109.62,-80.75 137.38,-80.75 137.38,-65 109.62,-65"/>
<text xml:space="preserve" text-anchor="start" x="112.62" y="-71" font-family="Helvetica,sans-Serif" font-size="7.00" fill="#b71c1c">macro!</text>
<polygon fill="#fff8e1" stroke="none" points="137.38,-65 137.38,-80.75 224.38,-80.75 224.38,-65 137.38,-65"/>
<text xml:space="preserve" text-anchor="start" x="140.38" y="-71.15" font-family="Helvetica,sans-Serif" font-weight="bold" font-size="8.00" fill="#d32f2f">⚙ provider!</text>
<polygon fill="#ffcdd2" stroke="none" points="109.62,-49.25 109.62,-65 137.38,-65 137.38,-49.25 109.62,-49.25"/>
<text xml:space="preserve" text-anchor="start" x="112.62" y="-55.25" font-family="Helvetica,sans-Serif" font-size="7.00" fill="#b71c1c">macro!</text>
<polygon fill="#fff8e1" stroke="none" points="137.38,-49.25 137.38,-65 224.38,-65 224.38,-49.25 137.38,-49.25"/>
<text xml:space="preserve" text-anchor="start" x="140.38" y="-55.4" font-family="Helvetica,sans-Serif" font-weight="bold" font-size="8.00" fill="#d32f2f">⚙ tuple!</text>
<polygon fill="#ffcdd2" stroke="none" points="109.62,-33.5 109.62,-49.25 137.38,-49.25 137.38,-33.5 109.62,-33.5"/>
<text xml:space="preserve" text-anchor="start" x="112.62" y="-39.5" font-family="Helvetica,sans-Serif" font-size="7.00" fill="#b71c1c">macro!</text>
<polygon fill="#fff8e1" stroke="none" points="137.38,-33.5 137.38,-49.25 224.38,-49.25 224.38,-33.5 137.38,-33.5"/>
<text xml:space="preserve" text-anchor="start" x="140.38" y="-39.65" font-family="Helvetica,sans-Serif" font-weight="bold" font-size="8.00" fill="#d32f2f">⚙ provider_generic!</text>
<polygon fill="#ffcdd2" stroke="none" points="109.62,-17.75 109.62,-33.5 137.38,-33.5 137.38,-17.75 109.62,-17.75"/>
<text xml:space="preserve" text-anchor="start" x="112.62" y="-23.75" font-family="Helvetica,sans-Serif" font-size="7.00" fill="#b71c1c">macro!</text>
<polygon fill="#fff8e1" stroke="none" points="137.38,-17.75 137.38,-33.5 224.38,-33.5 224.38,-17.75 137.38,-17.75"/>
<text xml:space="preserve" text-anchor="start" x="140.38" y="-23.9" font-family="Helvetica,sans-Serif" font-weight="bold" font-size="8.00" fill="#d32f2f">⚙ provider_generic2!</text>
<polygon fill="#ffcdd2" stroke="none" points="109.62,-2 109.62,-17.75 137.38,-17.75 137.38,-2 109.62,-2"/>
<text xml:space="preserve" text-anchor="start" x="112.62" y="-8" font-family="Helvetica,sans-Serif" font-size="7.00" fill="#b71c1c">macro!</text>
<polygon fill="#fff8e1" stroke="none" points="137.38,-2 137.38,-17.75 224.38,-17.75 224.38,-2 137.38,-2"/>
<text xml:space="preserve" text-anchor="start" x="140.38" y="-8.15" font-family="Helvetica,sans-Serif" font-weight="bold" font-size="8.00" fill="#d32f2f">⚙ define_providers!</text>
<polygon fill="#666666" stroke="#666666" points="107.62,-96.5 107.62,-96.5 226.38,-96.5 226.38,-96.5 107.62,-96.5"/>
<polygon fill="#666666" stroke="#666666" points="107.62,-80.75 107.62,-80.75 137.38,-80.75 137.38,-80.75 107.62,-80.75"/>
<polygon fill="#666666" stroke="#666666" points="137.38,-80.75 137.38,-80.75 226.38,-80.75 226.38,-80.75 137.38,-80.75"/>
<polygon fill="#666666" stroke="#666666" points="107.62,-65 107.62,-65 137.38,-65 137.38,-65 107.62,-65"/>
<polygon fill="#666666" stroke="#666666" points="137.38,-65 137.38,-65 226.38,-65 226.38,-65 137.38,-65"/>
<polygon fill="#666666" stroke="#666666" points="107.62,-49.25 107.62,-49.25 137.38,-49.25 137.38,-49.25 107.62,-49.25"/>
<polygon fill="#666666" stroke="#666666" points="137.38,-49.25 137.38,-49.25 226.38,-49.25 226.38,-49.25 137.38,-49.25"/>
<polygon fill="#666666" stroke="#666666" points="107.62,-33.5 107.62,-33.5 137.38,-33.5 137.38,-33.5 107.62,-33.5"/>
<polygon fill="#666666" stroke="#666666" points="137.38,-33.5 137.38,-33.5 226.38,-33.5 226.38,-33.5 137.38,-33.5"/>
<polygon fill="#666666" stroke="#666666" points="107.62,-17.75 107.62,-17.75 137.38,-17.75 137.38,-17.75 107.62,-17.75"/>
<polygon fill="#666666" stroke="#666666" points="137.38,-17.75 137.38,-17.75 226.38,-17.75 226.38,-17.75 137.38,-17.75"/>
<path fill="none" stroke="#666666" stroke-width="2" d="M120.62,-1C120.62,-1 213.38,-1 213.38,-1 219.38,-1 225.38,-7 225.38,-13 225.38,-13 225.38,-102.75 225.38,-102.75 225.38,-108.75 219.38,-114.75 213.38,-114.75 213.38,-114.75 120.62,-114.75 120.62,-114.75 114.62,-114.75 108.62,-108.75 108.62,-102.75 108.62,-102.75 108.62,-13 108.62,-13 108.62,-7 114.62,-1 120.62,-1"/>
</g>
<!-- hilavitkutin_ctx&#45;&gt;hilavitkutin_api -->
<g id="edge1" class="edge">
<title>hilavitkutin_ctx&#45;&gt;hilavitkutin_api</title>
<path fill="none" stroke="#bbbbbb" stroke-width="0.8" d="M167,-115.69C167,-138.78 167,-164.13 167,-181.86"/>
<polygon fill="#bbbbbb" stroke="#bbbbbb" stroke-width="0.8" points="165.25,-181.82 167,-186.82 168.75,-181.82 165.25,-181.82"/>
</g>
<!-- hilavitkutin_extensions -->
<g id="node4" class="node">
<title>hilavitkutin_extensions</title>
<path fill="#f0f0f0" stroke="none" d="M456.04,-189C456.04,-189 503.96,-189 503.96,-189 509.54,-189 515.12,-194.58 515.12,-200.17 515.12,-200.17 515.12,-211.33 515.12,-211.33 515.12,-216.92 509.54,-222.5 503.96,-222.5 503.96,-222.5 456.04,-222.5 456.04,-222.5 450.46,-222.5 444.88,-216.92 444.88,-211.33 444.88,-211.33 444.88,-200.17 444.88,-200.17 444.88,-194.58 450.46,-189 456.04,-189"/>
<polygon fill="#666666" stroke="none" points="445.88,-204.25 445.88,-221.5 514.12,-221.5 514.12,-204.25 445.88,-204.25"/>
<text xml:space="preserve" text-anchor="start" x="448.88" y="-210" font-family="Helvetica,sans-Serif" font-weight="bold" font-size="10.00" fill="white"> &#160;extensions &#160;</text>
<text xml:space="preserve" text-anchor="start" x="468" y="-195.6" font-family="Helvetica,sans-Serif" font-style="italic" font-size="7.00" fill="#999999">(empty)</text>
<path fill="none" stroke="#666666" stroke-width="2" d="M456.04,-189C456.04,-189 503.96,-189 503.96,-189 509.54,-189 515.12,-194.58 515.12,-200.17 515.12,-200.17 515.12,-211.33 515.12,-211.33 515.12,-216.92 509.54,-222.5 503.96,-222.5 503.96,-222.5 456.04,-222.5 456.04,-222.5 450.46,-222.5 444.88,-216.92 444.88,-211.33 444.88,-211.33 444.88,-200.17 444.88,-200.17 444.88,-194.58 450.46,-189 456.04,-189"/>
</g>
<!-- hilavitkutin_extensions_macros -->
<g id="node5" class="node">
<title>hilavitkutin_extensions_macros</title>
<path fill="#f0f0f0" stroke="none" d="M344.38,-296.75C344.38,-296.75 615.62,-296.75 615.62,-296.75 621.62,-296.75 627.62,-302.75 627.62,-308.75 627.62,-308.75 627.62,-336.25 627.62,-336.25 627.62,-342.25 621.62,-348.25 615.62,-348.25 615.62,-348.25 344.38,-348.25 344.38,-348.25 338.38,-348.25 332.38,-342.25 332.38,-336.25 332.38,-336.25 332.38,-308.75 332.38,-308.75 332.38,-302.75 338.38,-296.75 344.38,-296.75"/>
<polygon fill="#666666" stroke="none" points="333.38,-330 333.38,-347.25 626.62,-347.25 626.62,-330 333.38,-330"/>
<text xml:space="preserve" text-anchor="start" x="430.12" y="-335.75" font-family="Helvetica,sans-Serif" font-weight="bold" font-size="10.00" fill="white"> &#160;extensions&#45;macros &#160;</text>
<polygon fill="#ffcdd2" stroke="none" points="333.38,-314.25 333.38,-330 355.12,-330 355.12,-314.25 333.38,-314.25"/>
<text xml:space="preserve" text-anchor="start" x="336.38" y="-320.25" font-family="Helvetica,sans-Serif" font-size="7.00" fill="#b71c1c">proc!</text>
<polygon fill="#fff8e1" stroke="none" points="355.12,-314.25 355.12,-330 626.62,-330 626.62,-314.25 355.12,-314.25"/>
<text xml:space="preserve" text-anchor="start" x="358.12" y="-320.4" font-family="Helvetica,sans-Serif" font-weight="bold" font-size="8.00" fill="#d32f2f">⚙ export_extension!</text>
<text xml:space="preserve" text-anchor="start" x="336.38" y="-304.12" font-family="Helvetica,sans-Serif" font-size="6.00" fill="#78909c">fn</text>
<text xml:space="preserve" text-anchor="start" x="358.12" y="-304.65" font-family="Helvetica,sans-Serif" font-weight="bold" font-size="7.00" fill="#546e7a">ƒ export_extension</text>
<text xml:space="preserve" text-anchor="start" x="422.62" y="-304.65" font-family="Helvetica,sans-Serif" font-size="8.00">(attr: TokenStream, item: TokenStream) → TokenStream</text>
<polygon fill="#666666" stroke="#666666" points="331.38,-330 331.38,-330 628.62,-330 628.62,-330 331.38,-330"/>
<polygon fill="#666666" stroke="#666666" points="331.38,-314.25 331.38,-314.25 355.12,-314.25 355.12,-314.25 331.38,-314.25"/>
<polygon fill="#666666" stroke="#666666" points="355.12,-314.25 355.12,-314.25 628.62,-314.25 628.62,-314.25 355.12,-314.25"/>
<path fill="none" stroke="#666666" stroke-width="2" d="M344.38,-296.75C344.38,-296.75 615.62,-296.75 615.62,-296.75 621.62,-296.75 627.62,-302.75 627.62,-308.75 627.62,-308.75 627.62,-336.25 627.62,-336.25 627.62,-342.25 621.62,-348.25 615.62,-348.25 615.62,-348.25 344.38,-348.25 344.38,-348.25 338.38,-348.25 332.38,-342.25 332.38,-336.25 332.38,-336.25 332.38,-308.75 332.38,-308.75 332.38,-302.75 338.38,-296.75 344.38,-296.75"/>
</g>
<!-- hilavitkutin_extensions&#45;&gt;hilavitkutin_extensions_macros -->
<g id="edge3" class="edge">
<title>hilavitkutin_extensions&#45;&gt;hilavitkutin_extensions_macros</title>
<path fill="none" stroke="#bbbbbb" stroke-width="0.8" d="M480,-223.68C480,-241.04 480,-268.46 480,-289.86"/>
<polygon fill="#bbbbbb" stroke="#bbbbbb" stroke-width="0.8" points="478.25,-289.79 480,-294.79 481.75,-289.79 478.25,-289.79"/>
</g>
<!-- hilavitkutin_kit -->
<g id="node6" class="node">
<title>hilavitkutin_kit</title>
<path fill="#f0f0f0" stroke="none" d="M664.25,-34C664.25,-34 739.75,-34 739.75,-34 745.75,-34 751.75,-40 751.75,-46 751.75,-46 751.75,-69.75 751.75,-69.75 751.75,-75.75 745.75,-81.75 739.75,-81.75 739.75,-81.75 664.25,-81.75 664.25,-81.75 658.25,-81.75 652.25,-75.75 652.25,-69.75 652.25,-69.75 652.25,-46 652.25,-46 652.25,-40 658.25,-34 664.25,-34"/>
<polygon fill="#666666" stroke="none" points="653.25,-63.5 653.25,-80.75 750.75,-80.75 750.75,-63.5 653.25,-63.5"/>
<text xml:space="preserve" text-anchor="start" x="690.38" y="-69.25" font-family="Helvetica,sans-Serif" font-weight="bold" font-size="10.00" fill="white"> &#160;kit &#160;</text>
<text xml:space="preserve" text-anchor="start" x="656.25" y="-53.75" font-family="Helvetica,sans-Serif" font-size="6.00" fill="#78909c">trait</text>
<text xml:space="preserve" text-anchor="start" x="672" y="-54.85" font-family="Helvetica,sans-Serif" font-weight="bold" font-size="7.00" fill="#546e7a">◆ Kit&lt;B&gt;</text>
<text xml:space="preserve" text-anchor="start" x="672" y="-39.5" font-family="Helvetica,sans-Serif" font-size="5.00" fill="#90a4ae">ƒ install(builder: B) → Self::Output</text>
<polygon fill="#666666" stroke="#666666" points="651.25,-63.5 651.25,-63.5 752.75,-63.5 752.75,-63.5 651.25,-63.5"/>
<path fill="none" stroke="#666666" stroke-width="2" d="M664.25,-34C664.25,-34 739.75,-34 739.75,-34 745.75,-34 751.75,-40 751.75,-46 751.75,-46 751.75,-69.75 751.75,-69.75 751.75,-75.75 745.75,-81.75 739.75,-81.75 739.75,-81.75 664.25,-81.75 664.25,-81.75 658.25,-81.75 652.25,-75.75 652.25,-69.75 652.25,-69.75 652.25,-46 652.25,-46 652.25,-40 658.25,-34 664.25,-34"/>
</g>
<!-- hilavitkutin_linking -->
<g id="node7" class="node">
<title>hilavitkutin_linking</title>
<path fill="#f0f0f0" stroke="none" d="M350.75,-32.12C350.75,-32.12 609.25,-32.12 609.25,-32.12 615.25,-32.12 621.25,-38.12 621.25,-44.12 621.25,-44.12 621.25,-71.62 621.25,-71.62 621.25,-77.62 615.25,-83.62 609.25,-83.62 609.25,-83.62 350.75,-83.62 350.75,-83.62 344.75,-83.62 338.75,-77.62 338.75,-71.62 338.75,-71.62 338.75,-44.12 338.75,-44.12 338.75,-38.12 344.75,-32.12 350.75,-32.12"/>
<polygon fill="#666666" stroke="none" points="339.75,-65.38 339.75,-82.62 620.25,-82.62 620.25,-65.38 339.75,-65.38"/>
<text xml:space="preserve" text-anchor="start" x="457.88" y="-71.12" font-family="Helvetica,sans-Serif" font-weight="bold" font-size="10.00" fill="white"> &#160;linking &#160;</text>
<text xml:space="preserve" text-anchor="start" x="342.75" y="-55.62" font-family="Helvetica,sans-Serif" font-size="6.00" fill="#78909c">struct</text>
<text xml:space="preserve" text-anchor="start" x="363" y="-56.73" font-family="Helvetica,sans-Serif" font-weight="bold" font-size="7.00" fill="#546e7a">■ Library</text>
<text xml:space="preserve" text-anchor="start" x="342.75" y="-39.5" font-family="Helvetica,sans-Serif" font-size="6.00" fill="#78909c">fn</text>
<text xml:space="preserve" text-anchor="start" x="363" y="-40.02" font-family="Helvetica,sans-Serif" font-weight="bold" font-size="7.00" fill="#546e7a">ƒ compatibility_check</text>
<text xml:space="preserve" text-anchor="start" x="436.5" y="-40.02" font-family="Helvetica,sans-Serif" font-size="8.00">(bytes: &amp;[u8]) → Outcome&lt;(), IncompatibilityError&gt;</text>
<polygon fill="#666666" stroke="#666666" points="337.75,-65.38 337.75,-65.38 622.25,-65.38 622.25,-65.38 337.75,-65.38"/>
<polygon fill="#666666" stroke="#666666" points="337.75,-49.62 337.75,-49.62 360,-49.62 360,-49.62 337.75,-49.62"/>
<polygon fill="#666666" stroke="#666666" points="360,-49.62 360,-49.62 622.25,-49.62 622.25,-49.62 360,-49.62"/>
<path fill="none" stroke="#666666" stroke-width="2" d="M350.75,-32.12C350.75,-32.12 609.25,-32.12 609.25,-32.12 615.25,-32.12 621.25,-38.12 621.25,-44.12 621.25,-44.12 621.25,-71.62 621.25,-71.62 621.25,-77.62 615.25,-83.62 609.25,-83.62 609.25,-83.62 350.75,-83.62 350.75,-83.62 344.75,-83.62 338.75,-77.62 338.75,-71.62 338.75,-71.62 338.75,-44.12 338.75,-44.12 338.75,-38.12 344.75,-32.12 350.75,-32.12"/>
</g>
<!-- hilavitkutin_linking&#45;&gt;hilavitkutin_extensions -->
<g id="edge2" class="edge">
<title>hilavitkutin_linking&#45;&gt;hilavitkutin_extensions</title>
<path fill="none" stroke="#bbbbbb" stroke-width="0.8" d="M480,-84.62C480,-112.18 480,-155.5 480,-181.9"/>
<polygon fill="#bbbbbb" stroke="#bbbbbb" stroke-width="0.8" points="478.25,-181.69 480,-186.69 481.75,-181.69 478.25,-181.69"/>
</g>
<!-- hilavitkutin_providers -->
<g id="node9" class="node">
<title>hilavitkutin_providers</title>
<path fill="#f0f0f0" stroke="none" d="M57.04,-189C57.04,-189 98.96,-189 98.96,-189 104.54,-189 110.12,-194.58 110.12,-200.17 110.12,-200.17 110.12,-211.33 110.12,-211.33 110.12,-216.92 104.54,-222.5 98.96,-222.5 98.96,-222.5 57.04,-222.5 57.04,-222.5 51.46,-222.5 45.88,-216.92 45.88,-211.33 45.88,-211.33 45.88,-200.17 45.88,-200.17 45.88,-194.58 51.46,-189 57.04,-189"/>
<polygon fill="#666666" stroke="none" points="46.88,-204.25 46.88,-221.5 109.12,-221.5 109.12,-204.25 46.88,-204.25"/>
<text xml:space="preserve" text-anchor="start" x="49.88" y="-210" font-family="Helvetica,sans-Serif" font-weight="bold" font-size="10.00" fill="white"> &#160;providers &#160;</text>
<text xml:space="preserve" text-anchor="start" x="66" y="-195.6" font-family="Helvetica,sans-Serif" font-style="italic" font-size="7.00" fill="#999999">(empty)</text>
<path fill="none" stroke="#666666" stroke-width="2" d="M57.04,-189C57.04,-189 98.96,-189 98.96,-189 104.54,-189 110.12,-194.58 110.12,-200.17 110.12,-200.17 110.12,-211.33 110.12,-211.33 110.12,-216.92 104.54,-222.5 98.96,-222.5 98.96,-222.5 57.04,-222.5 57.04,-222.5 51.46,-222.5 45.88,-216.92 45.88,-211.33 45.88,-211.33 45.88,-200.17 45.88,-200.17 45.88,-194.58 51.46,-189 57.04,-189"/>
</g>
<!-- hilavitkutin_str -->
<g id="node10" class="node">
<title>hilavitkutin_str</title>
<path fill="#f0f0f0" stroke="none" d="M21.67,-41.12C21.67,-41.12 32.33,-41.12 32.33,-41.12 37.67,-41.12 43,-46.46 43,-51.79 43,-51.79 43,-63.96 43,-63.96 43,-69.29 37.67,-74.62 32.33,-74.62 32.33,-74.62 21.67,-74.62 21.67,-74.62 16.33,-74.62 11,-69.29 11,-63.96 11,-63.96 11,-51.79 11,-51.79 11,-46.46 16.33,-41.12 21.67,-41.12"/>
<polygon fill="#666666" stroke="none" points="12,-56.38 12,-73.62 42,-73.62 42,-56.38 12,-56.38"/>
<text xml:space="preserve" text-anchor="start" x="15" y="-62.12" font-family="Helvetica,sans-Serif" font-weight="bold" font-size="10.00" fill="white"> &#160;str &#160;</text>
<text xml:space="preserve" text-anchor="start" x="15" y="-47.73" font-family="Helvetica,sans-Serif" font-style="italic" font-size="7.00" fill="#999999">(empty)</text>
<path fill="none" stroke="#666666" stroke-width="2" d="M21.67,-41.12C21.67,-41.12 32.33,-41.12 32.33,-41.12 37.67,-41.12 43,-46.46 43,-51.79 43,-51.79 43,-63.96 43,-63.96 43,-69.29 37.67,-74.62 32.33,-74.62 32.33,-74.62 21.67,-74.62 21.67,-74.62 16.33,-74.62 11,-69.29 11,-63.96 11,-63.96 11,-51.79 11,-51.79 11,-46.46 16.33,-41.12 21.67,-41.12"/>
</g>
<!-- hilavitkutin_str&#45;&gt;hilavitkutin_persistence -->
<g id="edge4" class="edge">
<title>hilavitkutin_str&#45;&gt;hilavitkutin_persistence</title>
<path fill="none" stroke="#bbbbbb" stroke-width="0.8" d="M24.69,-75.62C21.1,-105.84 15.94,-171.2 30,-223.75 37.51,-251.83 54.74,-280.54 67.73,-299.52"/>
<polygon fill="#bbbbbb" stroke="#bbbbbb" stroke-width="0.8" points="66.29,-300.5 70.58,-303.61 69.16,-298.5 66.29,-300.5"/>
</g>
<!-- hilavitkutin_str&#45;&gt;hilavitkutin_providers -->
<g id="edge6" class="edge">
<title>hilavitkutin_str&#45;&gt;hilavitkutin_providers</title>
<path fill="none" stroke="#bbbbbb" stroke-width="0.8" d="M32.85,-75.61C42.02,-101.85 59.81,-152.71 70.11,-182.17"/>
<polygon fill="#bbbbbb" stroke="#bbbbbb" stroke-width="0.8" points="68.36,-182.48 71.66,-186.62 71.66,-181.32 68.36,-182.48"/>
</g>
</g>
</svg>
