<!--
  AUTO-GENERATED — DO NOT EDIT DIRECTLY

  Generated by: mockspace (mock)
  Generated at: 2026-05-09T21:22:14Z
  Source: mock/
  To regenerate: cargo mock
-->

<?xml version="1.0" encoding="UTF-8" standalone="no"?>
<!DOCTYPE svg PUBLIC "-//W3C//DTD SVG 1.1//EN"
 "http://www.w3.org/Graphics/SVG/1.1/DTD/svg11.dtd">
<!-- Generated by graphviz version 14.1.5 (20260411.2331)
 -->
<!-- Title: hilavitkutin Pages: 1 -->
<svg width="755pt" height="509pt"
 viewBox="0.00 0.00 755.00 509.00" xmlns="http://www.w3.org/2000/svg" xmlns:xlink="http://www.w3.org/1999/xlink">
<g id="graph0" class="graph" transform="scale(1 1) rotate(0) translate(57.6 451.35)">
<title>hilavitkutin</title>
<polygon fill="#fafafa" stroke="none" points="-57.6,57.6 -57.6,-451.35 697.85,-451.35 697.85,57.6 -57.6,57.6"/>
<text xml:space="preserve" text-anchor="start" x="10" y="-371.65" font-family="Helvetica,sans-Serif" font-weight="bold" font-size="18.00" fill="#37474f">hilavitkutin</text>
<text xml:space="preserve" text-anchor="start" x="10" y="-357.5" font-family="Helvetica,sans-Serif" font-size="9.00" fill="#999999">crate architecture</text>
<!-- hilavitkutin_api -->
<g id="node1" class="node">
<title>hilavitkutin_api</title>
<path fill="#f0f0f0" stroke="none" d="M172.67,-189C172.67,-189 184.58,-189 184.58,-189 190.17,-189 195.75,-194.58 195.75,-200.17 195.75,-200.17 195.75,-211.33 195.75,-211.33 195.75,-216.92 190.17,-222.5 184.58,-222.5 184.58,-222.5 172.67,-222.5 172.67,-222.5 167.08,-222.5 161.5,-216.92 161.5,-211.33 161.5,-211.33 161.5,-200.17 161.5,-200.17 161.5,-194.58 167.08,-189 172.67,-189"/>
<polygon fill="#666666" stroke="none" points="162.5,-204.25 162.5,-221.5 194.75,-221.5 194.75,-204.25 162.5,-204.25"/>
<text xml:space="preserve" text-anchor="start" x="165.5" y="-210" font-family="Helvetica,sans-Serif" font-weight="bold" font-size="10.00" fill="white"> &#160;api &#160;</text>
<text xml:space="preserve" text-anchor="start" x="166.62" y="-195.6" font-family="Helvetica,sans-Serif" font-style="italic" font-size="7.00" fill="#999999">(empty)</text>
<path fill="none" stroke="#666666" stroke-width="2" d="M172.67,-189C172.67,-189 184.58,-189 184.58,-189 190.17,-189 195.75,-194.58 195.75,-200.17 195.75,-200.17 195.75,-211.33 195.75,-211.33 195.75,-216.92 190.17,-222.5 184.58,-222.5 184.58,-222.5 172.67,-222.5 172.67,-222.5 167.08,-222.5 161.5,-216.92 161.5,-211.33 161.5,-211.33 161.5,-200.17 161.5,-200.17 161.5,-194.58 167.08,-189 172.67,-189"/>
</g>
<!-- hilavitkutin_kit -->
<g id="node6" class="node">
<title>hilavitkutin_kit</title>
<path fill="#f0f0f0" stroke="none" d="M142.75,-297.12C142.75,-297.12 214.5,-297.12 214.5,-297.12 220.5,-297.12 226.5,-303.12 226.5,-309.12 226.5,-309.12 226.5,-335.88 226.5,-335.88 226.5,-341.88 220.5,-347.88 214.5,-347.88 214.5,-347.88 142.75,-347.88 142.75,-347.88 136.75,-347.88 130.75,-341.88 130.75,-335.88 130.75,-335.88 130.75,-309.12 130.75,-309.12 130.75,-303.12 136.75,-297.12 142.75,-297.12"/>
<polygon fill="#666666" stroke="none" points="131.75,-329.62 131.75,-346.88 225.5,-346.88 225.5,-329.62 131.75,-329.62"/>
<text xml:space="preserve" text-anchor="start" x="167" y="-335.38" font-family="Helvetica,sans-Serif" font-weight="bold" font-size="10.00" fill="white"> &#160;kit &#160;</text>
<text xml:space="preserve" text-anchor="start" x="134.75" y="-319.88" font-family="Helvetica,sans-Serif" font-size="6.00" fill="#78909c">trait</text>
<text xml:space="preserve" text-anchor="start" x="155" y="-320.02" font-family="Helvetica,sans-Serif" font-weight="bold" font-size="7.00" fill="#546e7a">◆ Kit</text>
<text xml:space="preserve" text-anchor="start" x="172.25" y="-320.02" font-family="Helvetica,sans-Serif" font-size="8.00"> </text>
<text xml:space="preserve" text-anchor="start" x="174.5" y="-320.02" font-family="Helvetica,sans-Serif" font-size="5.00" fill="#aaaaaa">: Provider&lt;Init = Self&gt;</text>
<text xml:space="preserve" text-anchor="start" x="134.75" y="-304.12" font-family="Helvetica,sans-Serif" font-size="6.00" fill="#78909c">struct</text>
<text xml:space="preserve" text-anchor="start" x="155" y="-305.23" font-family="Helvetica,sans-Serif" font-weight="bold" font-size="7.00" fill="#546e7a">■ KitDispatch&lt;K&gt;</text>
<polygon fill="#666666" stroke="#666666" points="129.75,-329.62 129.75,-329.62 227.5,-329.62 227.5,-329.62 129.75,-329.62"/>
<polygon fill="#666666" stroke="#666666" points="129.75,-313.88 129.75,-313.88 152,-313.88 152,-313.88 129.75,-313.88"/>
<polygon fill="#666666" stroke="#666666" points="152,-313.88 152,-313.88 227.5,-313.88 227.5,-313.88 152,-313.88"/>
<path fill="none" stroke="#666666" stroke-width="2" d="M142.75,-297.12C142.75,-297.12 214.5,-297.12 214.5,-297.12 220.5,-297.12 226.5,-303.12 226.5,-309.12 226.5,-309.12 226.5,-335.88 226.5,-335.88 226.5,-341.88 220.5,-347.88 214.5,-347.88 214.5,-347.88 142.75,-347.88 142.75,-347.88 136.75,-347.88 130.75,-341.88 130.75,-335.88 130.75,-335.88 130.75,-309.12 130.75,-309.12 130.75,-303.12 136.75,-297.12 142.75,-297.12"/>
</g>
<!-- hilavitkutin_api&#45;&gt;hilavitkutin_kit -->
<g id="edge4" class="edge">
<title>hilavitkutin_api&#45;&gt;hilavitkutin_kit</title>
<path fill="none" stroke="#bbbbbb" stroke-width="0.8" d="M178.62,-223.68C178.62,-241.16 178.62,-268.82 178.62,-290.28"/>
<polygon fill="#bbbbbb" stroke="#bbbbbb" stroke-width="0.8" points="176.88,-290.22 178.63,-295.22 180.38,-290.22 176.88,-290.22"/>
</g>
<!-- hilavitkutin_persistence -->
<g id="node8" class="node">
<title>hilavitkutin_persistence</title>
<path fill="#f0f0f0" stroke="none" d="M12.17,-305.75C12.17,-305.75 63.08,-305.75 63.08,-305.75 68.67,-305.75 74.25,-311.33 74.25,-316.92 74.25,-316.92 74.25,-328.08 74.25,-328.08 74.25,-333.67 68.67,-339.25 63.08,-339.25 63.08,-339.25 12.17,-339.25 12.17,-339.25 6.58,-339.25 1,-333.67 1,-328.08 1,-328.08 1,-316.92 1,-316.92 1,-311.33 6.58,-305.75 12.17,-305.75"/>
<polygon fill="#666666" stroke="none" points="2,-321 2,-338.25 73.25,-338.25 73.25,-321 2,-321"/>
<text xml:space="preserve" text-anchor="start" x="5" y="-326.75" font-family="Helvetica,sans-Serif" font-weight="bold" font-size="10.00" fill="white"> &#160;persistence &#160;</text>
<text xml:space="preserve" text-anchor="start" x="25.62" y="-312.35" font-family="Helvetica,sans-Serif" font-style="italic" font-size="7.00" fill="#999999">(empty)</text>
<path fill="none" stroke="#666666" stroke-width="2" d="M12.17,-305.75C12.17,-305.75 63.08,-305.75 63.08,-305.75 68.67,-305.75 74.25,-311.33 74.25,-316.92 74.25,-316.92 74.25,-328.08 74.25,-328.08 74.25,-333.67 68.67,-339.25 63.08,-339.25 63.08,-339.25 12.17,-339.25 12.17,-339.25 6.58,-339.25 1,-333.67 1,-328.08 1,-328.08 1,-316.92 1,-316.92 1,-311.33 6.58,-305.75 12.17,-305.75"/>
</g>
<!-- hilavitkutin_api&#45;&gt;hilavitkutin_persistence -->
<g id="edge6" class="edge">
<title>hilavitkutin_api&#45;&gt;hilavitkutin_persistence</title>
<path fill="none" stroke="#bbbbbb" stroke-width="0.8" d="M157.82,-223.68C132.47,-244.31 89.69,-279.12 62.6,-301.18"/>
<polygon fill="#bbbbbb" stroke="#bbbbbb" stroke-width="0.8" points="61.77,-299.59 59,-304.11 63.98,-302.31 61.77,-299.59"/>
</g>
<!-- hilavitkutin_build -->
<g id="node2" class="node">
<title>hilavitkutin_build</title>
<path fill="#f0f0f0" stroke="none" d="M282.79,-41.12C282.79,-41.12 304.46,-41.12 304.46,-41.12 310.04,-41.12 315.62,-46.71 315.62,-52.29 315.62,-52.29 315.62,-63.46 315.62,-63.46 315.62,-69.04 310.04,-74.62 304.46,-74.62 304.46,-74.62 282.79,-74.62 282.79,-74.62 277.21,-74.62 271.62,-69.04 271.62,-63.46 271.62,-63.46 271.62,-52.29 271.62,-52.29 271.62,-46.71 277.21,-41.12 282.79,-41.12"/>
<polygon fill="#666666" stroke="none" points="272.62,-56.38 272.62,-73.62 314.62,-73.62 314.62,-56.38 272.62,-56.38"/>
<text xml:space="preserve" text-anchor="start" x="275.62" y="-62.12" font-family="Helvetica,sans-Serif" font-weight="bold" font-size="10.00" fill="white"> &#160;build &#160;</text>
<text xml:space="preserve" text-anchor="start" x="281.62" y="-47.73" font-family="Helvetica,sans-Serif" font-style="italic" font-size="7.00" fill="#999999">(empty)</text>
<path fill="none" stroke="#666666" stroke-width="2" d="M282.79,-41.12C282.79,-41.12 304.46,-41.12 304.46,-41.12 310.04,-41.12 315.62,-46.71 315.62,-52.29 315.62,-52.29 315.62,-63.46 315.62,-63.46 315.62,-69.04 310.04,-74.62 304.46,-74.62 304.46,-74.62 282.79,-74.62 282.79,-74.62 277.21,-74.62 271.62,-69.04 271.62,-63.46 271.62,-63.46 271.62,-52.29 271.62,-52.29 271.62,-46.71 277.21,-41.12 282.79,-41.12"/>
</g>
<!-- hilavitkutin_ctx -->
<g id="node3" class="node">
<title>hilavitkutin_ctx</title>
<path fill="#f0f0f0" stroke="none" d="M132.25,-1C132.25,-1 225,-1 225,-1 231,-1 237,-7 237,-13 237,-13 237,-102.75 237,-102.75 237,-108.75 231,-114.75 225,-114.75 225,-114.75 132.25,-114.75 132.25,-114.75 126.25,-114.75 120.25,-108.75 120.25,-102.75 120.25,-102.75 120.25,-13 120.25,-13 120.25,-7 126.25,-1 132.25,-1"/>
<polygon fill="#666666" stroke="none" points="121.25,-96.5 121.25,-113.75 236,-113.75 236,-96.5 121.25,-96.5"/>
<text xml:space="preserve" text-anchor="start" x="165.88" y="-102.25" font-family="Helvetica,sans-Serif" font-weight="bold" font-size="10.00" fill="white"> &#160;ctx &#160;</text>
<text xml:space="preserve" text-anchor="start" x="124.25" y="-86.75" font-family="Helvetica,sans-Serif" font-size="6.00" fill="#78909c">struct</text>
<text xml:space="preserve" text-anchor="start" x="152" y="-87.85" font-family="Helvetica,sans-Serif" font-weight="bold" font-size="7.00" fill="#546e7a">■ Context&lt;P&gt;</text>
<polygon fill="#ffcdd2" stroke="none" points="121.25,-65 121.25,-80.75 149,-80.75 149,-65 121.25,-65"/>
<text xml:space="preserve" text-anchor="start" x="124.25" y="-71" font-family="Helvetica,sans-Serif" font-size="7.00" fill="#b71c1c">macro!</text>
<polygon fill="#fff8e1" stroke="none" points="149,-65 149,-80.75 236,-80.75 236,-65 149,-65"/>
<text xml:space="preserve" text-anchor="start" x="152" y="-71.15" font-family="Helvetica,sans-Serif" font-weight="bold" font-size="8.00" fill="#d32f2f">⚙ provider!</text>
<polygon fill="#ffcdd2" stroke="none" points="121.25,-49.25 121.25,-65 149,-65 149,-49.25 121.25,-49.25"/>
<text xml:space="preserve" text-anchor="start" x="124.25" y="-55.25" font-family="Helvetica,sans-Serif" font-size="7.00" fill="#b71c1c">macro!</text>
<polygon fill="#fff8e1" stroke="none" points="149,-49.25 149,-65 236,-65 236,-49.25 149,-49.25"/>
<text xml:space="preserve" text-anchor="start" x="152" y="-55.4" font-family="Helvetica,sans-Serif" font-weight="bold" font-size="8.00" fill="#d32f2f">⚙ tuple!</text>
<polygon fill="#ffcdd2" stroke="none" points="121.25,-33.5 121.25,-49.25 149,-49.25 149,-33.5 121.25,-33.5"/>
<text xml:space="preserve" text-anchor="start" x="124.25" y="-39.5" font-family="Helvetica,sans-Serif" font-size="7.00" fill="#b71c1c">macro!</text>
<polygon fill="#fff8e1" stroke="none" points="149,-33.5 149,-49.25 236,-49.25 236,-33.5 149,-33.5"/>
<text xml:space="preserve" text-anchor="start" x="152" y="-39.65" font-family="Helvetica,sans-Serif" font-weight="bold" font-size="8.00" fill="#d32f2f">⚙ provider_generic!</text>
<polygon fill="#ffcdd2" stroke="none" points="121.25,-17.75 121.25,-33.5 149,-33.5 149,-17.75 121.25,-17.75"/>
<text xml:space="preserve" text-anchor="start" x="124.25" y="-23.75" font-family="Helvetica,sans-Serif" font-size="7.00" fill="#b71c1c">macro!</text>
<polygon fill="#fff8e1" stroke="none" points="149,-17.75 149,-33.5 236,-33.5 236,-17.75 149,-17.75"/>
<text xml:space="preserve" text-anchor="start" x="152" y="-23.9" font-family="Helvetica,sans-Serif" font-weight="bold" font-size="8.00" fill="#d32f2f">⚙ provider_generic2!</text>
<polygon fill="#ffcdd2" stroke="none" points="121.25,-2 121.25,-17.75 149,-17.75 149,-2 121.25,-2"/>
<text xml:space="preserve" text-anchor="start" x="124.25" y="-8" font-family="Helvetica,sans-Serif" font-size="7.00" fill="#b71c1c">macro!</text>
<polygon fill="#fff8e1" stroke="none" points="149,-2 149,-17.75 236,-17.75 236,-2 149,-2"/>
<text xml:space="preserve" text-anchor="start" x="152" y="-8.15" font-family="Helvetica,sans-Serif" font-weight="bold" font-size="8.00" fill="#d32f2f">⚙ define_providers!</text>
<polygon fill="#666666" stroke="#666666" points="119.25,-96.5 119.25,-96.5 238,-96.5 238,-96.5 119.25,-96.5"/>
<polygon fill="#666666" stroke="#666666" points="119.25,-80.75 119.25,-80.75 149,-80.75 149,-80.75 119.25,-80.75"/>
<polygon fill="#666666" stroke="#666666" points="149,-80.75 149,-80.75 238,-80.75 238,-80.75 149,-80.75"/>
<polygon fill="#666666" stroke="#666666" points="119.25,-65 119.25,-65 149,-65 149,-65 119.25,-65"/>
<polygon fill="#666666" stroke="#666666" points="149,-65 149,-65 238,-65 238,-65 149,-65"/>
<polygon fill="#666666" stroke="#666666" points="119.25,-49.25 119.25,-49.25 149,-49.25 149,-49.25 119.25,-49.25"/>
<polygon fill="#666666" stroke="#666666" points="149,-49.25 149,-49.25 238,-49.25 238,-49.25 149,-49.25"/>
<polygon fill="#666666" stroke="#666666" points="119.25,-33.5 119.25,-33.5 149,-33.5 149,-33.5 119.25,-33.5"/>
<polygon fill="#666666" stroke="#666666" points="149,-33.5 149,-33.5 238,-33.5 238,-33.5 149,-33.5"/>
<polygon fill="#666666" stroke="#666666" points="119.25,-17.75 119.25,-17.75 149,-17.75 149,-17.75 119.25,-17.75"/>
<polygon fill="#666666" stroke="#666666" points="149,-17.75 149,-17.75 238,-17.75 238,-17.75 149,-17.75"/>
<path fill="none" stroke="#666666" stroke-width="2" d="M132.25,-1C132.25,-1 225,-1 225,-1 231,-1 237,-7 237,-13 237,-13 237,-102.75 237,-102.75 237,-108.75 231,-114.75 225,-114.75 225,-114.75 132.25,-114.75 132.25,-114.75 126.25,-114.75 120.25,-108.75 120.25,-102.75 120.25,-102.75 120.25,-13 120.25,-13 120.25,-7 126.25,-1 132.25,-1"/>
</g>
<!-- hilavitkutin_ctx&#45;&gt;hilavitkutin_api -->
<g id="edge1" class="edge">
<title>hilavitkutin_ctx&#45;&gt;hilavitkutin_api</title>
<path fill="none" stroke="#bbbbbb" stroke-width="0.8" d="M178.62,-115.69C178.62,-138.78 178.62,-164.13 178.62,-181.86"/>
<polygon fill="#bbbbbb" stroke="#bbbbbb" stroke-width="0.8" points="176.88,-181.82 178.63,-186.82 180.38,-181.82 176.88,-181.82"/>
</g>
<!-- hilavitkutin_extensions -->
<g id="node4" class="node">
<title>hilavitkutin_extensions</title>
<path fill="#f0f0f0" stroke="none" d="M467.67,-189C467.67,-189 515.58,-189 515.58,-189 521.17,-189 526.75,-194.58 526.75,-200.17 526.75,-200.17 526.75,-211.33 526.75,-211.33 526.75,-216.92 521.17,-222.5 515.58,-222.5 515.58,-222.5 467.67,-222.5 467.67,-222.5 462.08,-222.5 456.5,-216.92 456.5,-211.33 456.5,-211.33 456.5,-200.17 456.5,-200.17 456.5,-194.58 462.08,-189 467.67,-189"/>
<polygon fill="#666666" stroke="none" points="457.5,-204.25 457.5,-221.5 525.75,-221.5 525.75,-204.25 457.5,-204.25"/>
<text xml:space="preserve" text-anchor="start" x="460.5" y="-210" font-family="Helvetica,sans-Serif" font-weight="bold" font-size="10.00" fill="white"> &#160;extensions &#160;</text>
<text xml:space="preserve" text-anchor="start" x="479.62" y="-195.6" font-family="Helvetica,sans-Serif" font-style="italic" font-size="7.00" fill="#999999">(empty)</text>
<path fill="none" stroke="#666666" stroke-width="2" d="M467.67,-189C467.67,-189 515.58,-189 515.58,-189 521.17,-189 526.75,-194.58 526.75,-200.17 526.75,-200.17 526.75,-211.33 526.75,-211.33 526.75,-216.92 521.17,-222.5 515.58,-222.5 515.58,-222.5 467.67,-222.5 467.67,-222.5 462.08,-222.5 456.5,-216.92 456.5,-211.33 456.5,-211.33 456.5,-200.17 456.5,-200.17 456.5,-194.58 462.08,-189 467.67,-189"/>
</g>
<!-- hilavitkutin_extensions_macros -->
<g id="node5" class="node">
<title>hilavitkutin_extensions_macros</title>
<path fill="#f0f0f0" stroke="none" d="M356,-296.75C356,-296.75 627.25,-296.75 627.25,-296.75 633.25,-296.75 639.25,-302.75 639.25,-308.75 639.25,-308.75 639.25,-336.25 639.25,-336.25 639.25,-342.25 633.25,-348.25 627.25,-348.25 627.25,-348.25 356,-348.25 356,-348.25 350,-348.25 344,-342.25 344,-336.25 344,-336.25 344,-308.75 344,-308.75 344,-302.75 350,-296.75 356,-296.75"/>
<polygon fill="#666666" stroke="none" points="345,-330 345,-347.25 638.25,-347.25 638.25,-330 345,-330"/>
<text xml:space="preserve" text-anchor="start" x="441.75" y="-335.75" font-family="Helvetica,sans-Serif" font-weight="bold" font-size="10.00" fill="white"> &#160;extensions&#45;macros &#160;</text>
<polygon fill="#ffcdd2" stroke="none" points="345,-314.25 345,-330 366.75,-330 366.75,-314.25 345,-314.25"/>
<text xml:space="preserve" text-anchor="start" x="348" y="-320.25" font-family="Helvetica,sans-Serif" font-size="7.00" fill="#b71c1c">proc!</text>
<polygon fill="#fff8e1" stroke="none" points="366.75,-314.25 366.75,-330 638.25,-330 638.25,-314.25 366.75,-314.25"/>
<text xml:space="preserve" text-anchor="start" x="369.75" y="-320.4" font-family="Helvetica,sans-Serif" font-weight="bold" font-size="8.00" fill="#d32f2f">⚙ export_extension!</text>
<text xml:space="preserve" text-anchor="start" x="348" y="-304.12" font-family="Helvetica,sans-Serif" font-size="6.00" fill="#78909c">fn</text>
<text xml:space="preserve" text-anchor="start" x="369.75" y="-304.65" font-family="Helvetica,sans-Serif" font-weight="bold" font-size="7.00" fill="#546e7a">ƒ export_extension</text>
<text xml:space="preserve" text-anchor="start" x="434.25" y="-304.65" font-family="Helvetica,sans-Serif" font-size="8.00">(attr: TokenStream, item: TokenStream) → TokenStream</text>
<polygon fill="#666666" stroke="#666666" points="343,-330 343,-330 640.25,-330 640.25,-330 343,-330"/>
<polygon fill="#666666" stroke="#666666" points="343,-314.25 343,-314.25 366.75,-314.25 366.75,-314.25 343,-314.25"/>
<polygon fill="#666666" stroke="#666666" points="366.75,-314.25 366.75,-314.25 640.25,-314.25 640.25,-314.25 366.75,-314.25"/>
<path fill="none" stroke="#666666" stroke-width="2" d="M356,-296.75C356,-296.75 627.25,-296.75 627.25,-296.75 633.25,-296.75 639.25,-302.75 639.25,-308.75 639.25,-308.75 639.25,-336.25 639.25,-336.25 639.25,-342.25 633.25,-348.25 627.25,-348.25 627.25,-348.25 356,-348.25 356,-348.25 350,-348.25 344,-342.25 344,-336.25 344,-336.25 344,-308.75 344,-308.75 344,-302.75 350,-296.75 356,-296.75"/>
</g>
<!-- hilavitkutin_extensions&#45;&gt;hilavitkutin_extensions_macros -->
<g id="edge3" class="edge">
<title>hilavitkutin_extensions&#45;&gt;hilavitkutin_extensions_macros</title>
<path fill="none" stroke="#bbbbbb" stroke-width="0.8" d="M491.62,-223.68C491.62,-241.04 491.62,-268.46 491.62,-289.86"/>
<polygon fill="#bbbbbb" stroke="#bbbbbb" stroke-width="0.8" points="489.88,-289.79 491.63,-294.79 493.38,-289.79 489.88,-289.79"/>
</g>
<!-- hilavitkutin_linking -->
<g id="node7" class="node">
<title>hilavitkutin_linking</title>
<path fill="#f0f0f0" stroke="none" d="M362.38,-32.12C362.38,-32.12 620.88,-32.12 620.88,-32.12 626.88,-32.12 632.88,-38.12 632.88,-44.12 632.88,-44.12 632.88,-71.62 632.88,-71.62 632.88,-77.62 626.88,-83.62 620.88,-83.62 620.88,-83.62 362.38,-83.62 362.38,-83.62 356.38,-83.62 350.38,-77.62 350.38,-71.62 350.38,-71.62 350.38,-44.12 350.38,-44.12 350.38,-38.12 356.38,-32.12 362.38,-32.12"/>
<polygon fill="#666666" stroke="none" points="351.38,-65.38 351.38,-82.62 631.88,-82.62 631.88,-65.38 351.38,-65.38"/>
<text xml:space="preserve" text-anchor="start" x="469.5" y="-71.12" font-family="Helvetica,sans-Serif" font-weight="bold" font-size="10.00" fill="white"> &#160;linking &#160;</text>
<text xml:space="preserve" text-anchor="start" x="354.38" y="-55.62" font-family="Helvetica,sans-Serif" font-size="6.00" fill="#78909c">struct</text>
<text xml:space="preserve" text-anchor="start" x="374.62" y="-56.73" font-family="Helvetica,sans-Serif" font-weight="bold" font-size="7.00" fill="#546e7a">■ Library</text>
<text xml:space="preserve" text-anchor="start" x="354.38" y="-39.5" font-family="Helvetica,sans-Serif" font-size="6.00" fill="#78909c">fn</text>
<text xml:space="preserve" text-anchor="start" x="374.62" y="-40.02" font-family="Helvetica,sans-Serif" font-weight="bold" font-size="7.00" fill="#546e7a">ƒ compatibility_check</text>
<text xml:space="preserve" text-anchor="start" x="448.12" y="-40.02" font-family="Helvetica,sans-Serif" font-size="8.00">(bytes: &amp;[u8]) → Outcome&lt;(), IncompatibilityError&gt;</text>
<polygon fill="#666666" stroke="#666666" points="349.38,-65.38 349.38,-65.38 633.88,-65.38 633.88,-65.38 349.38,-65.38"/>
<polygon fill="#666666" stroke="#666666" points="349.38,-49.62 349.38,-49.62 371.62,-49.62 371.62,-49.62 349.38,-49.62"/>
<polygon fill="#666666" stroke="#666666" points="371.62,-49.62 371.62,-49.62 633.88,-49.62 633.88,-49.62 371.62,-49.62"/>
<path fill="none" stroke="#666666" stroke-width="2" d="M362.38,-32.12C362.38,-32.12 620.88,-32.12 620.88,-32.12 626.88,-32.12 632.88,-38.12 632.88,-44.12 632.88,-44.12 632.88,-71.62 632.88,-71.62 632.88,-77.62 626.88,-83.62 620.88,-83.62 620.88,-83.62 362.38,-83.62 362.38,-83.62 356.38,-83.62 350.38,-77.62 350.38,-71.62 350.38,-71.62 350.38,-44.12 350.38,-44.12 350.38,-38.12 356.38,-32.12 362.38,-32.12"/>
</g>
<!-- hilavitkutin_linking&#45;&gt;hilavitkutin_extensions -->
<g id="edge2" class="edge">
<title>hilavitkutin_linking&#45;&gt;hilavitkutin_extensions</title>
<path fill="none" stroke="#bbbbbb" stroke-width="0.8" d="M491.62,-84.62C491.62,-112.18 491.62,-155.5 491.62,-181.9"/>
<polygon fill="#bbbbbb" stroke="#bbbbbb" stroke-width="0.8" points="489.88,-181.69 491.63,-186.69 493.38,-181.69 489.88,-181.69"/>
</g>
<!-- hilavitkutin_providers -->
<g id="node9" class="node">
<title>hilavitkutin_providers</title>
<path fill="#f0f0f0" stroke="none" d="M68.67,-189C68.67,-189 110.58,-189 110.58,-189 116.17,-189 121.75,-194.58 121.75,-200.17 121.75,-200.17 121.75,-211.33 121.75,-211.33 121.75,-216.92 116.17,-222.5 110.58,-222.5 110.58,-222.5 68.67,-222.5 68.67,-222.5 63.08,-222.5 57.5,-216.92 57.5,-211.33 57.5,-211.33 57.5,-200.17 57.5,-200.17 57.5,-194.58 63.08,-189 68.67,-189"/>
<polygon fill="#666666" stroke="none" points="58.5,-204.25 58.5,-221.5 120.75,-221.5 120.75,-204.25 58.5,-204.25"/>
<text xml:space="preserve" text-anchor="start" x="61.5" y="-210" font-family="Helvetica,sans-Serif" font-weight="bold" font-size="10.00" fill="white"> &#160;providers &#160;</text>
<text xml:space="preserve" text-anchor="start" x="77.62" y="-195.6" font-family="Helvetica,sans-Serif" font-style="italic" font-size="7.00" fill="#999999">(empty)</text>
<path fill="none" stroke="#666666" stroke-width="2" d="M68.67,-189C68.67,-189 110.58,-189 110.58,-189 116.17,-189 121.75,-194.58 121.75,-200.17 121.75,-200.17 121.75,-211.33 121.75,-211.33 121.75,-216.92 116.17,-222.5 110.58,-222.5 110.58,-222.5 68.67,-222.5 68.67,-222.5 63.08,-222.5 57.5,-216.92 57.5,-211.33 57.5,-211.33 57.5,-200.17 57.5,-200.17 57.5,-194.58 63.08,-189 68.67,-189"/>
</g>
<!-- hilavitkutin_str -->
<g id="node10" class="node">
<title>hilavitkutin_str</title>
<path fill="#f0f0f0" stroke="none" d="M33.29,-41.12C33.29,-41.12 43.96,-41.12 43.96,-41.12 49.29,-41.12 54.62,-46.46 54.62,-51.79 54.62,-51.79 54.62,-63.96 54.62,-63.96 54.62,-69.29 49.29,-74.62 43.96,-74.62 43.96,-74.62 33.29,-74.62 33.29,-74.62 27.96,-74.62 22.62,-69.29 22.62,-63.96 22.62,-63.96 22.62,-51.79 22.62,-51.79 22.62,-46.46 27.96,-41.12 33.29,-41.12"/>
<polygon fill="#666666" stroke="none" points="23.62,-56.38 23.62,-73.62 53.62,-73.62 53.62,-56.38 23.62,-56.38"/>
<text xml:space="preserve" text-anchor="start" x="26.62" y="-62.12" font-family="Helvetica,sans-Serif" font-weight="bold" font-size="10.00" fill="white"> &#160;str &#160;</text>
<text xml:space="preserve" text-anchor="start" x="26.62" y="-47.73" font-family="Helvetica,sans-Serif" font-style="italic" font-size="7.00" fill="#999999">(empty)</text>
<path fill="none" stroke="#666666" stroke-width="2" d="M33.29,-41.12C33.29,-41.12 43.96,-41.12 43.96,-41.12 49.29,-41.12 54.62,-46.46 54.62,-51.79 54.62,-51.79 54.62,-63.96 54.62,-63.96 54.62,-69.29 49.29,-74.62 43.96,-74.62 43.96,-74.62 33.29,-74.62 33.29,-74.62 27.96,-74.62 22.62,-69.29 22.62,-63.96 22.62,-63.96 22.62,-51.79 22.62,-51.79 22.62,-46.46 27.96,-41.12 33.29,-41.12"/>
</g>
<!-- hilavitkutin_str&#45;&gt;hilavitkutin_persistence -->
<g id="edge5" class="edge">
<title>hilavitkutin_str&#45;&gt;hilavitkutin_persistence</title>
<path fill="none" stroke="#bbbbbb" stroke-width="0.8" d="M38.56,-75.7C38.39,-121.29 37.91,-247.18 37.71,-298.89"/>
<polygon fill="#bbbbbb" stroke="#bbbbbb" stroke-width="0.8" points="35.96,-298.59 37.69,-303.6 39.46,-298.61 35.96,-298.59"/>
</g>
<!-- hilavitkutin_str&#45;&gt;hilavitkutin_providers -->
<g id="edge7" class="edge">
<title>hilavitkutin_str&#45;&gt;hilavitkutin_providers</title>
<path fill="none" stroke="#bbbbbb" stroke-width="0.8" d="M44.48,-75.61C53.65,-101.85 71.43,-152.71 81.73,-182.17"/>
<polygon fill="#bbbbbb" stroke="#bbbbbb" stroke-width="0.8" points="79.98,-182.48 83.29,-186.62 83.29,-181.32 79.98,-182.48"/>
</g>
</g>
</svg>
