<!--
  AUTO-GENERATED — DO NOT EDIT DIRECTLY

  Generated by: mockspace (mock)
  Generated at: 2026-05-08T14:36:58Z
  Source: mock/
  To regenerate: cargo mock
-->

<?xml version="1.0" encoding="UTF-8" standalone="no"?>
<!DOCTYPE svg PUBLIC "-//W3C//DTD SVG 1.1//EN"
 "http://www.w3.org/Graphics/SVG/1.1/DTD/svg11.dtd">
<!-- Generated by graphviz version 14.1.5 (20260411.2331)
 -->
<!-- Title: hilavitkutin Pages: 1 -->
<svg width="744pt" height="509pt"
 viewBox="0.00 0.00 744.00 509.00" xmlns="http://www.w3.org/2000/svg" xmlns:xlink="http://www.w3.org/1999/xlink">
<g id="graph0" class="graph" transform="scale(1 1) rotate(0) translate(57.6 451.35)">
<title>hilavitkutin</title>
<polygon fill="#fafafa" stroke="none" points="-57.6,57.6 -57.6,-451.35 686.85,-451.35 686.85,57.6 -57.6,57.6"/>
<text xml:space="preserve" text-anchor="start" x="10" y="-371.65" font-family="Helvetica,sans-Serif" font-weight="bold" font-size="18.00" fill="#37474f">hilavitkutin</text>
<text xml:space="preserve" text-anchor="start" x="10" y="-357.5" font-family="Helvetica,sans-Serif" font-size="9.00" fill="#999999">crate architecture</text>
<!-- hilavitkutin_api -->
<g id="node1" class="node">
<title>hilavitkutin_api</title>
<path fill="#f0f0f0" stroke="none" d="M161.67,-189C161.67,-189 173.58,-189 173.58,-189 179.17,-189 184.75,-194.58 184.75,-200.17 184.75,-200.17 184.75,-211.33 184.75,-211.33 184.75,-216.92 179.17,-222.5 173.58,-222.5 173.58,-222.5 161.67,-222.5 161.67,-222.5 156.08,-222.5 150.5,-216.92 150.5,-211.33 150.5,-211.33 150.5,-200.17 150.5,-200.17 150.5,-194.58 156.08,-189 161.67,-189"/>
<polygon fill="#666666" stroke="none" points="151.5,-204.25 151.5,-221.5 183.75,-221.5 183.75,-204.25 151.5,-204.25"/>
<text xml:space="preserve" text-anchor="start" x="154.5" y="-210" font-family="Helvetica,sans-Serif" font-weight="bold" font-size="10.00" fill="white"> &#160;api &#160;</text>
<text xml:space="preserve" text-anchor="start" x="155.62" y="-195.6" font-family="Helvetica,sans-Serif" font-style="italic" font-size="7.00" fill="#999999">(empty)</text>
<path fill="none" stroke="#666666" stroke-width="2" d="M161.67,-189C161.67,-189 173.58,-189 173.58,-189 179.17,-189 184.75,-194.58 184.75,-200.17 184.75,-200.17 184.75,-211.33 184.75,-211.33 184.75,-216.92 179.17,-222.5 173.58,-222.5 173.58,-222.5 161.67,-222.5 161.67,-222.5 156.08,-222.5 150.5,-216.92 150.5,-211.33 150.5,-211.33 150.5,-200.17 150.5,-200.17 150.5,-194.58 156.08,-189 161.67,-189"/>
</g>
<!-- hilavitkutin_kit -->
<g id="node6" class="node">
<title>hilavitkutin_kit</title>
<path fill="#f0f0f0" stroke="none" d="M158.79,-305C158.79,-305 176.46,-305 176.46,-305 182.29,-305 188.12,-310.83 188.12,-316.67 188.12,-316.67 188.12,-328.33 188.12,-328.33 188.12,-334.17 182.29,-340 176.46,-340 176.46,-340 158.79,-340 158.79,-340 152.96,-340 147.12,-334.17 147.12,-328.33 147.12,-328.33 147.12,-316.67 147.12,-316.67 147.12,-310.83 152.96,-305 158.79,-305"/>
<polygon fill="#666666" stroke="none" points="148.12,-321.75 148.12,-339 187.12,-339 187.12,-321.75 148.12,-321.75"/>
<text xml:space="preserve" text-anchor="start" x="156" y="-327.5" font-family="Helvetica,sans-Serif" font-weight="bold" font-size="10.00" fill="white"> &#160;kit &#160;</text>
<text xml:space="preserve" text-anchor="start" x="151.12" y="-312" font-family="Helvetica,sans-Serif" font-size="6.00" fill="#78909c">trait</text>
<text xml:space="preserve" text-anchor="start" x="166.88" y="-313.1" font-family="Helvetica,sans-Serif" font-weight="bold" font-size="7.00" fill="#546e7a">◆ Kit</text>
<polygon fill="#666666" stroke="#666666" points="146.12,-321.75 146.12,-321.75 189.12,-321.75 189.12,-321.75 146.12,-321.75"/>
<path fill="none" stroke="#666666" stroke-width="2" d="M158.79,-305C158.79,-305 176.46,-305 176.46,-305 182.29,-305 188.12,-310.83 188.12,-316.67 188.12,-316.67 188.12,-328.33 188.12,-328.33 188.12,-334.17 182.29,-340 176.46,-340 176.46,-340 158.79,-340 158.79,-340 152.96,-340 147.12,-334.17 147.12,-328.33 147.12,-328.33 147.12,-316.67 147.12,-316.67 147.12,-310.83 152.96,-305 158.79,-305"/>
</g>
<!-- hilavitkutin_api&#45;&gt;hilavitkutin_kit -->
<g id="edge4" class="edge">
<title>hilavitkutin_api&#45;&gt;hilavitkutin_kit</title>
<path fill="none" stroke="#bbbbbb" stroke-width="0.8" d="M167.62,-223.68C167.62,-243.4 167.62,-276.08 167.62,-298.19"/>
<polygon fill="#bbbbbb" stroke="#bbbbbb" stroke-width="0.8" points="165.88,-297.91 167.63,-302.91 169.38,-297.91 165.88,-297.91"/>
</g>
<!-- hilavitkutin_persistence -->
<g id="node8" class="node">
<title>hilavitkutin_persistence</title>
<path fill="#f0f0f0" stroke="none" d="M12.17,-305.75C12.17,-305.75 63.08,-305.75 63.08,-305.75 68.67,-305.75 74.25,-311.33 74.25,-316.92 74.25,-316.92 74.25,-328.08 74.25,-328.08 74.25,-333.67 68.67,-339.25 63.08,-339.25 63.08,-339.25 12.17,-339.25 12.17,-339.25 6.58,-339.25 1,-333.67 1,-328.08 1,-328.08 1,-316.92 1,-316.92 1,-311.33 6.58,-305.75 12.17,-305.75"/>
<polygon fill="#666666" stroke="none" points="2,-321 2,-338.25 73.25,-338.25 73.25,-321 2,-321"/>
<text xml:space="preserve" text-anchor="start" x="5" y="-326.75" font-family="Helvetica,sans-Serif" font-weight="bold" font-size="10.00" fill="white"> &#160;persistence &#160;</text>
<text xml:space="preserve" text-anchor="start" x="25.62" y="-312.35" font-family="Helvetica,sans-Serif" font-style="italic" font-size="7.00" fill="#999999">(empty)</text>
<path fill="none" stroke="#666666" stroke-width="2" d="M12.17,-305.75C12.17,-305.75 63.08,-305.75 63.08,-305.75 68.67,-305.75 74.25,-311.33 74.25,-316.92 74.25,-316.92 74.25,-328.08 74.25,-328.08 74.25,-333.67 68.67,-339.25 63.08,-339.25 63.08,-339.25 12.17,-339.25 12.17,-339.25 6.58,-339.25 1,-333.67 1,-328.08 1,-328.08 1,-316.92 1,-316.92 1,-311.33 6.58,-305.75 12.17,-305.75"/>
</g>
<!-- hilavitkutin_api&#45;&gt;hilavitkutin_persistence -->
<g id="edge6" class="edge">
<title>hilavitkutin_api&#45;&gt;hilavitkutin_persistence</title>
<path fill="none" stroke="#bbbbbb" stroke-width="0.8" d="M148.44,-223.68C125.17,-244.22 85.96,-278.84 60.96,-300.9"/>
<polygon fill="#bbbbbb" stroke="#bbbbbb" stroke-width="0.8" points="59.96,-299.45 57.37,-304.07 62.28,-302.07 59.96,-299.45"/>
</g>
<!-- hilavitkutin_build -->
<g id="node2" class="node">
<title>hilavitkutin_build</title>
<path fill="#f0f0f0" stroke="none" d="M271.79,-41.12C271.79,-41.12 293.46,-41.12 293.46,-41.12 299.04,-41.12 304.62,-46.71 304.62,-52.29 304.62,-52.29 304.62,-63.46 304.62,-63.46 304.62,-69.04 299.04,-74.62 293.46,-74.62 293.46,-74.62 271.79,-74.62 271.79,-74.62 266.21,-74.62 260.62,-69.04 260.62,-63.46 260.62,-63.46 260.62,-52.29 260.62,-52.29 260.62,-46.71 266.21,-41.12 271.79,-41.12"/>
<polygon fill="#666666" stroke="none" points="261.62,-56.38 261.62,-73.62 303.62,-73.62 303.62,-56.38 261.62,-56.38"/>
<text xml:space="preserve" text-anchor="start" x="264.62" y="-62.12" font-family="Helvetica,sans-Serif" font-weight="bold" font-size="10.00" fill="white"> &#160;build &#160;</text>
<text xml:space="preserve" text-anchor="start" x="270.62" y="-47.73" font-family="Helvetica,sans-Serif" font-style="italic" font-size="7.00" fill="#999999">(empty)</text>
<path fill="none" stroke="#666666" stroke-width="2" d="M271.79,-41.12C271.79,-41.12 293.46,-41.12 293.46,-41.12 299.04,-41.12 304.62,-46.71 304.62,-52.29 304.62,-52.29 304.62,-63.46 304.62,-63.46 304.62,-69.04 299.04,-74.62 293.46,-74.62 293.46,-74.62 271.79,-74.62 271.79,-74.62 266.21,-74.62 260.62,-69.04 260.62,-63.46 260.62,-63.46 260.62,-52.29 260.62,-52.29 260.62,-46.71 266.21,-41.12 271.79,-41.12"/>
</g>
<!-- hilavitkutin_ctx -->
<g id="node3" class="node">
<title>hilavitkutin_ctx</title>
<path fill="#f0f0f0" stroke="none" d="M121.25,-1C121.25,-1 214,-1 214,-1 220,-1 226,-7 226,-13 226,-13 226,-102.75 226,-102.75 226,-108.75 220,-114.75 214,-114.75 214,-114.75 121.25,-114.75 121.25,-114.75 115.25,-114.75 109.25,-108.75 109.25,-102.75 109.25,-102.75 109.25,-13 109.25,-13 109.25,-7 115.25,-1 121.25,-1"/>
<polygon fill="#666666" stroke="none" points="110.25,-96.5 110.25,-113.75 225,-113.75 225,-96.5 110.25,-96.5"/>
<text xml:space="preserve" text-anchor="start" x="154.88" y="-102.25" font-family="Helvetica,sans-Serif" font-weight="bold" font-size="10.00" fill="white"> &#160;ctx &#160;</text>
<text xml:space="preserve" text-anchor="start" x="113.25" y="-86.75" font-family="Helvetica,sans-Serif" font-size="6.00" fill="#78909c">struct</text>
<text xml:space="preserve" text-anchor="start" x="141" y="-87.85" font-family="Helvetica,sans-Serif" font-weight="bold" font-size="7.00" fill="#546e7a">■ Context&lt;P&gt;</text>
<polygon fill="#ffcdd2" stroke="none" points="110.25,-65 110.25,-80.75 138,-80.75 138,-65 110.25,-65"/>
<text xml:space="preserve" text-anchor="start" x="113.25" y="-71" font-family="Helvetica,sans-Serif" font-size="7.00" fill="#b71c1c">macro!</text>
<polygon fill="#fff8e1" stroke="none" points="138,-65 138,-80.75 225,-80.75 225,-65 138,-65"/>
<text xml:space="preserve" text-anchor="start" x="141" y="-71.15" font-family="Helvetica,sans-Serif" font-weight="bold" font-size="8.00" fill="#d32f2f">⚙ provider!</text>
<polygon fill="#ffcdd2" stroke="none" points="110.25,-49.25 110.25,-65 138,-65 138,-49.25 110.25,-49.25"/>
<text xml:space="preserve" text-anchor="start" x="113.25" y="-55.25" font-family="Helvetica,sans-Serif" font-size="7.00" fill="#b71c1c">macro!</text>
<polygon fill="#fff8e1" stroke="none" points="138,-49.25 138,-65 225,-65 225,-49.25 138,-49.25"/>
<text xml:space="preserve" text-anchor="start" x="141" y="-55.4" font-family="Helvetica,sans-Serif" font-weight="bold" font-size="8.00" fill="#d32f2f">⚙ tuple!</text>
<polygon fill="#ffcdd2" stroke="none" points="110.25,-33.5 110.25,-49.25 138,-49.25 138,-33.5 110.25,-33.5"/>
<text xml:space="preserve" text-anchor="start" x="113.25" y="-39.5" font-family="Helvetica,sans-Serif" font-size="7.00" fill="#b71c1c">macro!</text>
<polygon fill="#fff8e1" stroke="none" points="138,-33.5 138,-49.25 225,-49.25 225,-33.5 138,-33.5"/>
<text xml:space="preserve" text-anchor="start" x="141" y="-39.65" font-family="Helvetica,sans-Serif" font-weight="bold" font-size="8.00" fill="#d32f2f">⚙ provider_generic!</text>
<polygon fill="#ffcdd2" stroke="none" points="110.25,-17.75 110.25,-33.5 138,-33.5 138,-17.75 110.25,-17.75"/>
<text xml:space="preserve" text-anchor="start" x="113.25" y="-23.75" font-family="Helvetica,sans-Serif" font-size="7.00" fill="#b71c1c">macro!</text>
<polygon fill="#fff8e1" stroke="none" points="138,-17.75 138,-33.5 225,-33.5 225,-17.75 138,-17.75"/>
<text xml:space="preserve" text-anchor="start" x="141" y="-23.9" font-family="Helvetica,sans-Serif" font-weight="bold" font-size="8.00" fill="#d32f2f">⚙ provider_generic2!</text>
<polygon fill="#ffcdd2" stroke="none" points="110.25,-2 110.25,-17.75 138,-17.75 138,-2 110.25,-2"/>
<text xml:space="preserve" text-anchor="start" x="113.25" y="-8" font-family="Helvetica,sans-Serif" font-size="7.00" fill="#b71c1c">macro!</text>
<polygon fill="#fff8e1" stroke="none" points="138,-2 138,-17.75 225,-17.75 225,-2 138,-2"/>
<text xml:space="preserve" text-anchor="start" x="141" y="-8.15" font-family="Helvetica,sans-Serif" font-weight="bold" font-size="8.00" fill="#d32f2f">⚙ define_providers!</text>
<polygon fill="#666666" stroke="#666666" points="108.25,-96.5 108.25,-96.5 227,-96.5 227,-96.5 108.25,-96.5"/>
<polygon fill="#666666" stroke="#666666" points="108.25,-80.75 108.25,-80.75 138,-80.75 138,-80.75 108.25,-80.75"/>
<polygon fill="#666666" stroke="#666666" points="138,-80.75 138,-80.75 227,-80.75 227,-80.75 138,-80.75"/>
<polygon fill="#666666" stroke="#666666" points="108.25,-65 108.25,-65 138,-65 138,-65 108.25,-65"/>
<polygon fill="#666666" stroke="#666666" points="138,-65 138,-65 227,-65 227,-65 138,-65"/>
<polygon fill="#666666" stroke="#666666" points="108.25,-49.25 108.25,-49.25 138,-49.25 138,-49.25 108.25,-49.25"/>
<polygon fill="#666666" stroke="#666666" points="138,-49.25 138,-49.25 227,-49.25 227,-49.25 138,-49.25"/>
<polygon fill="#666666" stroke="#666666" points="108.25,-33.5 108.25,-33.5 138,-33.5 138,-33.5 108.25,-33.5"/>
<polygon fill="#666666" stroke="#666666" points="138,-33.5 138,-33.5 227,-33.5 227,-33.5 138,-33.5"/>
<polygon fill="#666666" stroke="#666666" points="108.25,-17.75 108.25,-17.75 138,-17.75 138,-17.75 108.25,-17.75"/>
<polygon fill="#666666" stroke="#666666" points="138,-17.75 138,-17.75 227,-17.75 227,-17.75 138,-17.75"/>
<path fill="none" stroke="#666666" stroke-width="2" d="M121.25,-1C121.25,-1 214,-1 214,-1 220,-1 226,-7 226,-13 226,-13 226,-102.75 226,-102.75 226,-108.75 220,-114.75 214,-114.75 214,-114.75 121.25,-114.75 121.25,-114.75 115.25,-114.75 109.25,-108.75 109.25,-102.75 109.25,-102.75 109.25,-13 109.25,-13 109.25,-7 115.25,-1 121.25,-1"/>
</g>
<!-- hilavitkutin_ctx&#45;&gt;hilavitkutin_api -->
<g id="edge1" class="edge">
<title>hilavitkutin_ctx&#45;&gt;hilavitkutin_api</title>
<path fill="none" stroke="#bbbbbb" stroke-width="0.8" d="M167.62,-115.69C167.62,-138.78 167.62,-164.13 167.62,-181.86"/>
<polygon fill="#bbbbbb" stroke="#bbbbbb" stroke-width="0.8" points="165.88,-181.82 167.63,-186.82 169.38,-181.82 165.88,-181.82"/>
</g>
<!-- hilavitkutin_extensions -->
<g id="node4" class="node">
<title>hilavitkutin_extensions</title>
<path fill="#f0f0f0" stroke="none" d="M456.67,-189C456.67,-189 504.58,-189 504.58,-189 510.17,-189 515.75,-194.58 515.75,-200.17 515.75,-200.17 515.75,-211.33 515.75,-211.33 515.75,-216.92 510.17,-222.5 504.58,-222.5 504.58,-222.5 456.67,-222.5 456.67,-222.5 451.08,-222.5 445.5,-216.92 445.5,-211.33 445.5,-211.33 445.5,-200.17 445.5,-200.17 445.5,-194.58 451.08,-189 456.67,-189"/>
<polygon fill="#666666" stroke="none" points="446.5,-204.25 446.5,-221.5 514.75,-221.5 514.75,-204.25 446.5,-204.25"/>
<text xml:space="preserve" text-anchor="start" x="449.5" y="-210" font-family="Helvetica,sans-Serif" font-weight="bold" font-size="10.00" fill="white"> &#160;extensions &#160;</text>
<text xml:space="preserve" text-anchor="start" x="468.62" y="-195.6" font-family="Helvetica,sans-Serif" font-style="italic" font-size="7.00" fill="#999999">(empty)</text>
<path fill="none" stroke="#666666" stroke-width="2" d="M456.67,-189C456.67,-189 504.58,-189 504.58,-189 510.17,-189 515.75,-194.58 515.75,-200.17 515.75,-200.17 515.75,-211.33 515.75,-211.33 515.75,-216.92 510.17,-222.5 504.58,-222.5 504.58,-222.5 456.67,-222.5 456.67,-222.5 451.08,-222.5 445.5,-216.92 445.5,-211.33 445.5,-211.33 445.5,-200.17 445.5,-200.17 445.5,-194.58 451.08,-189 456.67,-189"/>
</g>
<!-- hilavitkutin_extensions_macros -->
<g id="node5" class="node">
<title>hilavitkutin_extensions_macros</title>
<path fill="#f0f0f0" stroke="none" d="M345,-296.75C345,-296.75 616.25,-296.75 616.25,-296.75 622.25,-296.75 628.25,-302.75 628.25,-308.75 628.25,-308.75 628.25,-336.25 628.25,-336.25 628.25,-342.25 622.25,-348.25 616.25,-348.25 616.25,-348.25 345,-348.25 345,-348.25 339,-348.25 333,-342.25 333,-336.25 333,-336.25 333,-308.75 333,-308.75 333,-302.75 339,-296.75 345,-296.75"/>
<polygon fill="#666666" stroke="none" points="334,-330 334,-347.25 627.25,-347.25 627.25,-330 334,-330"/>
<text xml:space="preserve" text-anchor="start" x="430.75" y="-335.75" font-family="Helvetica,sans-Serif" font-weight="bold" font-size="10.00" fill="white"> &#160;extensions&#45;macros &#160;</text>
<polygon fill="#ffcdd2" stroke="none" points="334,-314.25 334,-330 355.75,-330 355.75,-314.25 334,-314.25"/>
<text xml:space="preserve" text-anchor="start" x="337" y="-320.25" font-family="Helvetica,sans-Serif" font-size="7.00" fill="#b71c1c">proc!</text>
<polygon fill="#fff8e1" stroke="none" points="355.75,-314.25 355.75,-330 627.25,-330 627.25,-314.25 355.75,-314.25"/>
<text xml:space="preserve" text-anchor="start" x="358.75" y="-320.4" font-family="Helvetica,sans-Serif" font-weight="bold" font-size="8.00" fill="#d32f2f">⚙ export_extension!</text>
<text xml:space="preserve" text-anchor="start" x="337" y="-304.12" font-family="Helvetica,sans-Serif" font-size="6.00" fill="#78909c">fn</text>
<text xml:space="preserve" text-anchor="start" x="358.75" y="-304.65" font-family="Helvetica,sans-Serif" font-weight="bold" font-size="7.00" fill="#546e7a">ƒ export_extension</text>
<text xml:space="preserve" text-anchor="start" x="423.25" y="-304.65" font-family="Helvetica,sans-Serif" font-size="8.00">(attr: TokenStream, item: TokenStream) → TokenStream</text>
<polygon fill="#666666" stroke="#666666" points="332,-330 332,-330 629.25,-330 629.25,-330 332,-330"/>
<polygon fill="#666666" stroke="#666666" points="332,-314.25 332,-314.25 355.75,-314.25 355.75,-314.25 332,-314.25"/>
<polygon fill="#666666" stroke="#666666" points="355.75,-314.25 355.75,-314.25 629.25,-314.25 629.25,-314.25 355.75,-314.25"/>
<path fill="none" stroke="#666666" stroke-width="2" d="M345,-296.75C345,-296.75 616.25,-296.75 616.25,-296.75 622.25,-296.75 628.25,-302.75 628.25,-308.75 628.25,-308.75 628.25,-336.25 628.25,-336.25 628.25,-342.25 622.25,-348.25 616.25,-348.25 616.25,-348.25 345,-348.25 345,-348.25 339,-348.25 333,-342.25 333,-336.25 333,-336.25 333,-308.75 333,-308.75 333,-302.75 339,-296.75 345,-296.75"/>
</g>
<!-- hilavitkutin_extensions&#45;&gt;hilavitkutin_extensions_macros -->
<g id="edge3" class="edge">
<title>hilavitkutin_extensions&#45;&gt;hilavitkutin_extensions_macros</title>
<path fill="none" stroke="#bbbbbb" stroke-width="0.8" d="M480.62,-223.68C480.62,-241.04 480.62,-268.46 480.62,-289.86"/>
<polygon fill="#bbbbbb" stroke="#bbbbbb" stroke-width="0.8" points="478.88,-289.79 480.63,-294.79 482.38,-289.79 478.88,-289.79"/>
</g>
<!-- hilavitkutin_linking -->
<g id="node7" class="node">
<title>hilavitkutin_linking</title>
<path fill="#f0f0f0" stroke="none" d="M351.38,-32.12C351.38,-32.12 609.88,-32.12 609.88,-32.12 615.88,-32.12 621.88,-38.12 621.88,-44.12 621.88,-44.12 621.88,-71.62 621.88,-71.62 621.88,-77.62 615.88,-83.62 609.88,-83.62 609.88,-83.62 351.38,-83.62 351.38,-83.62 345.38,-83.62 339.38,-77.62 339.38,-71.62 339.38,-71.62 339.38,-44.12 339.38,-44.12 339.38,-38.12 345.38,-32.12 351.38,-32.12"/>
<polygon fill="#666666" stroke="none" points="340.38,-65.38 340.38,-82.62 620.88,-82.62 620.88,-65.38 340.38,-65.38"/>
<text xml:space="preserve" text-anchor="start" x="458.5" y="-71.12" font-family="Helvetica,sans-Serif" font-weight="bold" font-size="10.00" fill="white"> &#160;linking &#160;</text>
<text xml:space="preserve" text-anchor="start" x="343.38" y="-55.62" font-family="Helvetica,sans-Serif" font-size="6.00" fill="#78909c">struct</text>
<text xml:space="preserve" text-anchor="start" x="363.62" y="-56.73" font-family="Helvetica,sans-Serif" font-weight="bold" font-size="7.00" fill="#546e7a">■ Library</text>
<text xml:space="preserve" text-anchor="start" x="343.38" y="-39.5" font-family="Helvetica,sans-Serif" font-size="6.00" fill="#78909c">fn</text>
<text xml:space="preserve" text-anchor="start" x="363.62" y="-40.02" font-family="Helvetica,sans-Serif" font-weight="bold" font-size="7.00" fill="#546e7a">ƒ compatibility_check</text>
<text xml:space="preserve" text-anchor="start" x="437.12" y="-40.02" font-family="Helvetica,sans-Serif" font-size="8.00">(bytes: &amp;[u8]) → Outcome&lt;(), IncompatibilityError&gt;</text>
<polygon fill="#666666" stroke="#666666" points="338.38,-65.38 338.38,-65.38 622.88,-65.38 622.88,-65.38 338.38,-65.38"/>
<polygon fill="#666666" stroke="#666666" points="338.38,-49.62 338.38,-49.62 360.62,-49.62 360.62,-49.62 338.38,-49.62"/>
<polygon fill="#666666" stroke="#666666" points="360.62,-49.62 360.62,-49.62 622.88,-49.62 622.88,-49.62 360.62,-49.62"/>
<path fill="none" stroke="#666666" stroke-width="2" d="M351.38,-32.12C351.38,-32.12 609.88,-32.12 609.88,-32.12 615.88,-32.12 621.88,-38.12 621.88,-44.12 621.88,-44.12 621.88,-71.62 621.88,-71.62 621.88,-77.62 615.88,-83.62 609.88,-83.62 609.88,-83.62 351.38,-83.62 351.38,-83.62 345.38,-83.62 339.38,-77.62 339.38,-71.62 339.38,-71.62 339.38,-44.12 339.38,-44.12 339.38,-38.12 345.38,-32.12 351.38,-32.12"/>
</g>
<!-- hilavitkutin_linking&#45;&gt;hilavitkutin_extensions -->
<g id="edge2" class="edge">
<title>hilavitkutin_linking&#45;&gt;hilavitkutin_extensions</title>
<path fill="none" stroke="#bbbbbb" stroke-width="0.8" d="M480.62,-84.62C480.62,-112.18 480.62,-155.5 480.62,-181.9"/>
<polygon fill="#bbbbbb" stroke="#bbbbbb" stroke-width="0.8" points="478.88,-181.69 480.63,-186.69 482.38,-181.69 478.88,-181.69"/>
</g>
<!-- hilavitkutin_providers -->
<g id="node9" class="node">
<title>hilavitkutin_providers</title>
<path fill="#f0f0f0" stroke="none" d="M57.67,-189C57.67,-189 99.58,-189 99.58,-189 105.17,-189 110.75,-194.58 110.75,-200.17 110.75,-200.17 110.75,-211.33 110.75,-211.33 110.75,-216.92 105.17,-222.5 99.58,-222.5 99.58,-222.5 57.67,-222.5 57.67,-222.5 52.08,-222.5 46.5,-216.92 46.5,-211.33 46.5,-211.33 46.5,-200.17 46.5,-200.17 46.5,-194.58 52.08,-189 57.67,-189"/>
<polygon fill="#666666" stroke="none" points="47.5,-204.25 47.5,-221.5 109.75,-221.5 109.75,-204.25 47.5,-204.25"/>
<text xml:space="preserve" text-anchor="start" x="50.5" y="-210" font-family="Helvetica,sans-Serif" font-weight="bold" font-size="10.00" fill="white"> &#160;providers &#160;</text>
<text xml:space="preserve" text-anchor="start" x="66.62" y="-195.6" font-family="Helvetica,sans-Serif" font-style="italic" font-size="7.00" fill="#999999">(empty)</text>
<path fill="none" stroke="#666666" stroke-width="2" d="M57.67,-189C57.67,-189 99.58,-189 99.58,-189 105.17,-189 110.75,-194.58 110.75,-200.17 110.75,-200.17 110.75,-211.33 110.75,-211.33 110.75,-216.92 105.17,-222.5 99.58,-222.5 99.58,-222.5 57.67,-222.5 57.67,-222.5 52.08,-222.5 46.5,-216.92 46.5,-211.33 46.5,-211.33 46.5,-200.17 46.5,-200.17 46.5,-194.58 52.08,-189 57.67,-189"/>
</g>
<!-- hilavitkutin_str -->
<g id="node10" class="node">
<title>hilavitkutin_str</title>
<path fill="#f0f0f0" stroke="none" d="M22.29,-41.12C22.29,-41.12 32.96,-41.12 32.96,-41.12 38.29,-41.12 43.62,-46.46 43.62,-51.79 43.62,-51.79 43.62,-63.96 43.62,-63.96 43.62,-69.29 38.29,-74.62 32.96,-74.62 32.96,-74.62 22.29,-74.62 22.29,-74.62 16.96,-74.62 11.62,-69.29 11.62,-63.96 11.62,-63.96 11.62,-51.79 11.62,-51.79 11.62,-46.46 16.96,-41.12 22.29,-41.12"/>
<polygon fill="#666666" stroke="none" points="12.62,-56.38 12.62,-73.62 42.62,-73.62 42.62,-56.38 12.62,-56.38"/>
<text xml:space="preserve" text-anchor="start" x="15.62" y="-62.12" font-family="Helvetica,sans-Serif" font-weight="bold" font-size="10.00" fill="white"> &#160;str &#160;</text>
<text xml:space="preserve" text-anchor="start" x="15.62" y="-47.73" font-family="Helvetica,sans-Serif" font-style="italic" font-size="7.00" fill="#999999">(empty)</text>
<path fill="none" stroke="#666666" stroke-width="2" d="M22.29,-41.12C22.29,-41.12 32.96,-41.12 32.96,-41.12 38.29,-41.12 43.62,-46.46 43.62,-51.79 43.62,-51.79 43.62,-63.96 43.62,-63.96 43.62,-69.29 38.29,-74.62 32.96,-74.62 32.96,-74.62 22.29,-74.62 22.29,-74.62 16.96,-74.62 11.62,-69.29 11.62,-63.96 11.62,-63.96 11.62,-51.79 11.62,-51.79 11.62,-46.46 16.96,-41.12 22.29,-41.12"/>
</g>
<!-- hilavitkutin_str&#45;&gt;hilavitkutin_persistence -->
<g id="edge5" class="edge">
<title>hilavitkutin_str&#45;&gt;hilavitkutin_persistence</title>
<path fill="none" stroke="#bbbbbb" stroke-width="0.8" d="M27.64,-75.74C27.72,-105.59 28.2,-169.7 30.62,-223.75 31.77,-249.36 34,-278.69 35.63,-298.49"/>
<polygon fill="#bbbbbb" stroke="#bbbbbb" stroke-width="0.8" points="33.88,-298.52 36.04,-303.36 37.36,-298.23 33.88,-298.52"/>
</g>
<!-- hilavitkutin_str&#45;&gt;hilavitkutin_providers -->
<g id="edge7" class="edge">
<title>hilavitkutin_str&#45;&gt;hilavitkutin_providers</title>
<path fill="none" stroke="#bbbbbb" stroke-width="0.8" d="M33.48,-75.61C42.65,-101.85 60.43,-152.71 70.73,-182.17"/>
<polygon fill="#bbbbbb" stroke="#bbbbbb" stroke-width="0.8" points="68.98,-182.48 72.29,-186.62 72.29,-181.32 68.98,-182.48"/>
</g>
</g>
</svg>
